<?xml version="1.0" standalone="no"?>
<!DOCTYPE svg PUBLIC "-//W3C//DTD SVG 1.1//EN" "http://www.w3.org/Graphics/SVG/1.1/DTD/svg11.dtd" >
<svg xmlns="http://www.w3.org/2000/svg">
<metadata>Generated by IcoMoon</metadata>
<defs>
<font id="icomoon" horiz-adv-x="1024">
<font-face units-per-em="1024" ascent="960" descent="-64" />
<missing-glyph horiz-adv-x="1024" />
<glyph unicode="&#x20;" horiz-adv-x="512" d="" />
<glyph unicode="&#xe900;" glyph-name="set-phone" d="M531.495-64s-311.926 33.25-437.957 425.561l13.292 452.155s331.717-26.585 411.372 146.284c0 0 199.089-239.38 411.471-146.284v-385.664s39.778-339.111-398.178-492.052zM890.289 425.236v344.871c-189.834-83.239-367.852 130.816-367.852 130.816-71.188-154.585-367.852-130.816-367.852-130.816l-11.815-404.332c112.738-350.809 391.582-380.544 391.582-380.544 391.582 136.763 355.938 440.005 355.938 440.005zM486.006 260.923c-55.335 68.322-120.418 120.379-166.006 136.645l107.422 65.073 51.988-100.854s84.677 204.967 218.092 273.29c-3.249-48.807-16.246-91.097 6.498-143.153-58.585-13.017-179.003-159.419-217.994-231.001z" />
<glyph unicode="&#xe901;" glyph-name="buy" d="M1007.787 852.437h-0.427l-148.48-32.469-17.493-245.419v-37.845h-2.987l-21.333-298.667c0.018-0.308 0.028-0.668 0.028-1.030 0-6.917-3.749-12.958-9.326-16.202l-0.089-0.048c-1.97-1.124-4.258-1.983-6.685-2.452l-0.141-0.023c-1.659-0.442-3.568-0.706-5.535-0.725h-712.545c-0.242-0.010-0.526-0.016-0.811-0.016-11.334 0-20.523 9.188-20.523 20.523 0 0.006 0 0.011 0 0.017v-0.001c0 0.005 0 0.012 0 0.018 0 11.962 9.448 21.717 21.289 22.21l0.045 0.001h692.907l5.547 75.904h-707.84l-73.387 416.939 819.2 110.123 0.853 12.288v0.384c1.238 11.285 10.719 19.987 22.231 19.987 0.585 0 1.165-0.022 1.738-0.067l-0.076 0.005c10.621-0.86 18.915-9.691 18.915-20.46 0-0.849-0.052-1.686-0.152-2.508l0.010 0.099v-0.384l-0.427-8.32 136.533 29.867c1.202 0.232 2.584 0.365 3.998 0.365 10.552 0 19.376-7.394 21.575-17.284l0.027-0.147c0.312-1.339 0.491-2.877 0.491-4.457 0-10.128-7.352-18.539-17.010-20.187l-0.121-0.017zM677.12 379.051h107.093l11.52 157.611h-122.88zM159.147 731.392l-109.227-14.72 24.32-137.301h97.28zM174.933 536.619h-93.44l28.16-157.227h77.653zM360.96 758.485l-159.147-21.333 12.373-157.867h158.293zM375.040 536.619h-157.44l12.373-157.269h155.307zM622.933 793.813l-219.307-29.525 11.52-184.917h213.76zM630.187 536.619h-212.053l9.813-157.397h206.507zM665.6 799.531l5.973-220.16h127.147l17.493 240.427zM217.173 156.203c43.122 0 78.080-34.958 78.080-78.080s-34.958-78.080-78.080-78.080c-43.122 0-78.080 34.958-78.080 78.080 0 0.030 0 0.060 0 0.090v-0.005c0 43.075 34.919 77.995 77.995 77.995 0.030 0 0.060 0 0.090 0h-0.005zM737.28 202.709c55.873-0.121 101.12-45.443 101.12-101.333 0-55.965-45.368-101.333-101.333-101.333s-101.333 45.368-101.333 101.333c0 0.015 0 0.030 0 0.045v-0.002c0 0.038 0 0.083 0 0.129 0 55.871 45.292 101.163 101.163 101.163 0.135 0 0.27 0 0.405-0.001h-0.021z" />
<glyph unicode="&#xe902;" glyph-name="relationship" horiz-adv-x="1036" d="M932.265 724.585c41.804-61.201 70.667-134.468 80.968-213.567l0.267-2.506h-123.234c-22.093 157.559-135.425 283.694-284.067 324.301l-2.742 0.638v106.655c82.177-14.741 154.81-47.785 216.153-94.817l-1.185 0.872c6.354 54.973 52.634 97.255 108.789 97.255 60.461 0 109.473-49.013 109.473-109.473 0-58.684-46.176-106.584-104.176-109.348l-0.248-0.009zM139.812-64.553c-0.334-0.004-0.729-0.006-1.125-0.006-61.040 0-110.523 49.483-110.523 110.523 0 50.020 33.228 92.278 78.814 105.907l0.782 0.201c-42.381 57.673-73.15 126.569-87.369 201.329l-0.497 3.139h106.655c40.668-151.845 167.058-265.611 322.904-287.131l2.035-0.23v-121.576c-76.733 10.153-145.758 36.387-205.868 75.233l1.952-1.182c-11.734-49.552-55.459-85.903-107.726-86.208h-0.034zM117.707 508.512h-101.682c11.29 86.794 43.165 164.49 90.545 230.274l-1.021-1.49c-58.577 3.223-104.871 51.447-104.997 110.511v0.012c0.219 61.563 50.066 111.41 111.608 111.629h0.021c59.077-0.126 107.3-46.421 110.511-104.712l0.013-0.285c64.38 46.123 142.022 77.957 226.172 89.238l2.612 0.286v-101.129c-174.035-23.956-310.114-160.223-333.556-332.319l-0.225-2.014zM880.872 356.542h128.76c-14.114-75.797-43.318-142.974-84.5-201.062l1.055 1.567h0.553c0.402 0.005 0.878 0.008 1.353 0.008 61.193 0 110.8-49.607 110.8-110.8s-49.607-110.8-110.8-110.8c-60.316 0-109.375 48.195-110.769 108.175l-0.002 0.13c-59.976-45.704-132.141-78.669-210.723-93.454l-3.14-0.491v128.76c135.872 37.007 240.674 141.992 276.782 275.229l0.632 2.738z" />
<glyph unicode="&#xe903;" glyph-name="activate" d="M512-64c-282.77 0-512 229.23-512 512s229.23 512 512 512c282.77 0 512-229.23 512-512v0c0-282.77-229.23-512-512-512v0zM512 857.6c-226.216 0-409.6-183.384-409.6-409.6s183.384-409.6 409.6-409.6c226.216 0 409.6 183.384 409.6 409.6v0c0 226.216-183.384 409.6-409.6 409.6v0zM477.184 192c-57.498 78.88-131.712 142.148-217.723 185.405l-3.461 1.577 143.36 89.037 69.12-137.984s113.152 280.474 290.816 373.76c-4.096-66.56-21.504-124.672 8.704-195.891-78.336-17.613-238.592-217.958-290.816-315.904z" />
<glyph unicode="&#xe904;" glyph-name="csc" d="M1024 376.206c-0.284-103.845-81.157-188.71-183.358-195.364l-0.583-0.030v247.618h-1.138q1.138 12.933 1.138 26.093c0 181.182-146.877 328.059-328.059 328.059s-328.059-146.877-328.059-328.059v0q0-13.198 1.138-26.093h-1.138v-247.618c-102.851 6.079-183.957 90.972-183.957 194.809 0 85.586 55.101 158.302 131.764 184.61l1.372 0.409c48.75 166.236 199.879 285.566 378.88 285.566s330.13-119.33 378.177-282.778l0.703-2.788c77.831-26.678 132.833-99.095 133.12-184.399v-0.034zM512 702.369c2.178 0.059 4.741 0.093 7.312 0.093 156.434 0 283.762-124.621 288.122-280.001l0.009-0.403c-2.83-137.177-102.346-250.298-233.021-274.131l-1.74-0.263c8.723-56.51 83.058-98.039 83.058-98.039-31.821-11.009-68.494-17.366-106.651-17.366-185.665 0-336.175 150.511-336.175 336.175 0 172.598 130.071 314.816 297.538 333.979l1.549 0.144zM666.359 382.616c26.969 0.151 48.773 22.048 48.773 49.038 0 27.083-21.955 49.038-49.038 49.038s-49.038-21.955-49.038-49.038c0-0.013 0-0.026 0-0.039v0.002c0.279-27.017 22.245-48.811 49.301-48.811 0.001 0 0.002 0 0.003 0v0zM513.896 382.616c26.969 0.151 48.773 22.048 48.773 49.038 0 27.083-21.955 49.038-49.038 49.038s-49.038-21.955-49.038-49.038c0-0.013 0-0.026 0-0.039v0.002c0.129-26.985 22.034-48.811 49.038-48.811 0.094 0 0.187 0 0.28 0.001h-0.014zM361.055 382.616c0.034 0 0.074 0 0.114 0 27.083 0 49.038 21.955 49.038 49.038s-21.955 49.038-49.038 49.038c-27.083 0-49.038-21.955-49.038-49.038 0-0.013 0-0.027 0-0.040v0.002c0.277-26.885 22.030-48.599 48.904-48.811h0.020z" />
<glyph unicode="&#xe905;" glyph-name="c-member" d="M1024.353 24.099h-666.659c0.161 30.198 4.275 59.365 11.848 87.105l-0.549-2.36h-245.76c-0.063 0-0.138 0-0.212 0-68.014 0-123.173 55.036-123.374 123.002v516.998c0.201 67.986 55.36 123.021 123.374 123.021 0.075 0 0.149 0 0.224 0h493.627l123.586-123.021v-131.037c54.862-20.599 93.196-72.615 93.196-133.584 0-59.506-36.516-110.484-88.363-131.746l-0.949-0.344c159.521-26.32 279.743-163.097 280.011-328.005v-0.028zM691.023 724.233l-74.152 98.445h-444.204c-68.149 0-123.586-5.897-123.586-73.834v-467.58c0-67.937 6.003-123.021 74.152-123.021h263.062c45.518 101.050 137.137 174.256 247.308 193.323l1.983 0.284c-52.496 21.982-88.705 72.934-88.705 132.344 0 79.020 64.058 143.078 143.078 143.078 0.126 0 0.252 0 0.378 0h-0.020c0.353 0 0.353 0 0.706 0v97.068zM368.64 673.633h-268.712c-10.229 0.453-18.351 8.856-18.351 19.156s8.122 18.703 18.31 19.154l0.041 0.001h268.712c0.245 0.011 0.533 0.018 0.823 0.018 10.589 0 19.174-8.584 19.174-19.174s-8.584-19.174-19.174-19.174c-0.289 0-0.577 0.006-0.863 0.019l0.041-0.001zM99.928 606.332h269.065c10.018-0.448 17.971-8.679 17.971-18.767s-7.952-18.319-17.931-18.766l-0.040-0.001h-269.065c-10.018 0.448-17.971 8.679-17.971 18.767s7.952 18.319 17.931 18.766l0.040 0.001zM100.281 510.994h268.359c10.55 0 19.103-8.553 19.103-19.103s-8.553-19.103-19.103-19.103h-268.359c-10.579 0-19.156 8.576-19.156 19.156s8.576 19.156 19.156 19.156v0z" />
<glyph unicode="&#xe906;" glyph-name="c-sign" d="M896.427 0h-768.427c-70.692 0-128 57.308-128 128v0 512c0 70.692 57.308 128 128 128v0h128v-108.8c0-24.742 20.058-44.8 44.8-44.8v0h12.8c24.742 0 44.8 20.058 44.8 44.8v0 108.8h307.2v-108.8c0-24.742 20.058-44.8 44.8-44.8v0h13.227c24.742 0 44.8 20.058 44.8 44.8v0 108.8h128c70.692 0 128-57.308 128-128v0-512c-0.121-70.644-57.356-127.879-127.988-128h-0.012zM477.867 441.045h-328.96c-0.309 0.014-0.672 0.021-1.036 0.021-13.903 0-25.173-11.27-25.173-25.173s11.27-25.173 25.173-25.173c0.364 0 0.727 0.008 1.088 0.023l-0.051-0.002h328.96c0.62-0.054 1.342-0.085 2.071-0.085 13.903 0 25.173 11.27 25.173 25.173s-11.27 25.173-25.173 25.173c-0.729 0-1.451-0.031-2.164-0.092l0.093 0.006zM477.867 313.045h-328.96c-13.879 0-25.131-11.251-25.131-25.131s11.251-25.131 25.131-25.131h328.96c0.62-0.054 1.341-0.085 2.069-0.085 13.879 0 25.131 11.251 25.131 25.131s-11.251 25.131-25.131 25.131c-0.728 0-1.449-0.031-2.162-0.092l0.093 0.006zM477.867 185.045h-328.96c-13.879 0-25.131-11.251-25.131-25.131s11.251-25.131 25.131-25.131h328.96c0.693-0.068 1.499-0.107 2.313-0.107 13.879 0 25.131 11.251 25.131 25.131s-11.251 25.131-25.131 25.131c-0.814 0-1.62-0.039-2.414-0.114l0.101 0.008zM914.773 530.645c-7.508 5.442-16.905 8.705-27.064 8.705-14.772 0-27.933-6.9-36.435-17.653l-0.074-0.097-296.96-309.973-9.387-63.36 63.573 9.045 296.96 309.973c10.86 8.56 17.768 21.714 17.768 36.482 0 9.953-3.138 19.173-8.479 26.725l0.097-0.145zM716.8 640c-14.138 0-25.6 11.462-25.6 25.6v204.8c0 14.256 11.557 25.813 25.813 25.813s25.813-11.557 25.813-25.813v0-204.8c0-0.001 0-0.002 0-0.004 0-14.138-11.462-25.6-25.6-25.6-0.15 0-0.3 0.001-0.449 0.004h0.022zM307.2 640c-14.138 0-25.6 11.462-25.6 25.6v0 204.8c0 14.139 11.462 25.6 25.6 25.6s25.6-11.462 25.6-25.6c0 0 0 0 0 0v0-204.8c0-14.138-11.462-25.6-25.6-25.6v0z" />
<glyph unicode="&#xe907;" glyph-name="c-groupdata" d="M985.833-40.727h-947.665c-21.034 1.052-37.69 18.363-37.69 39.564s16.656 38.511 37.597 39.56l0.094 0.004h947.665c21.034-1.052 37.69-18.363 37.69-39.564s-16.656-38.511-37.597-39.56l-0.094-0.004zM804.305 332.567c-0.005 0.338-0.009 0.736-0.009 1.136 0 40.698 32.524 73.8 72.998 74.732l0.087 0.002h0.465c40.531-0.777 73.090-33.816 73.090-74.46 0-0.495-0.005-0.99-0.014-1.483l0.001 0.074v-188.044h-146.618v188.044zM570.182 464.291c-0.008 0.419-0.013 0.914-0.013 1.409 0 40.644 32.559 73.683 73.017 74.459l0.073 0.001h0.465c40.531-0.777 73.090-33.816 73.090-74.46 0-0.495-0.005-0.99-0.014-1.483l0.001 0.074v-319.767h-146.618v319.767zM322.095 728.669c-0.030 0.777-0.047 1.689-0.047 2.604 0 40.256 32.634 72.89 72.89 72.89s72.89-32.634 72.89-72.89c0-0.916-0.017-1.828-0.050-2.736l0.004 0.131v-584.145h-145.687v584.145zM73.076 860.858c-0.008 0.419-0.013 0.914-0.013 1.409 0 40.644 32.559 73.683 73.017 74.459l0.073 0.001c40.769-0.702 73.55-33.917 73.55-74.788 0-0.38-0.003-0.759-0.008-1.138l0.001 0.057v-716.335h-146.618v716.335z" />
<glyph unicode="&#xe908;" glyph-name="c-notice" d="M878.182 289.075v43.418c0.854-0.026 1.859-0.041 2.867-0.041 55.446 0 100.393 44.947 100.393 100.393s-44.947 100.393-100.393 100.393c-1.008 0-2.013-0.015-3.014-0.044l0.147 0.003v43.008c1.021 0.026 2.224 0.041 3.43 0.041 79.311 0 143.606-64.294 143.606-143.606s-64.294-143.606-143.606-143.606c-1.206 0-2.408 0.015-3.607 0.044l0.178-0.003zM818.79 509.44c-0.788-0.585-1.463-1.26-2.030-2.022l-0.018-0.026c-0.074 1.639-0.116 3.56-0.116 5.492 0 8.341 0.788 16.497 2.293 24.4l-0.128-0.81v-27.034zM686.080 24.064c-23.347 13.107-368.64 217.907-546.406 322.765-11.872-25.122-37.004-42.192-66.122-42.192-0.226 0-0.452 0.001-0.677 0.003h0.035c-0.307-0.005-0.669-0.007-1.031-0.007-39.57 0-71.714 31.79-72.287 71.224l-0.001 0.054v143.36c0.616 39.273 32.597 70.874 71.958 70.874 0.478 0 0.955-0.005 1.431-0.014l-0.071 0.001c0.158 0.001 0.345 0.002 0.532 0.002 29.261 0 54.541-17.046 66.451-41.75l0.192-0.441c174.49 103.219 514.458 304.742 547.635 322.765 7.039 4.24 15.537 6.747 24.62 6.747 26.465 0 47.958-21.289 48.288-47.676v-764.345c0.001-0.138 0.002-0.302 0.002-0.465 0-26.784-21.713-48.497-48.497-48.497-9.67 0-18.679 2.83-26.244 7.708l0.191-0.115zM818.79 329.216c-1.382 6.952-2.172 14.945-2.172 23.122 0 1.952 0.045 3.894 0.134 5.824l-0.010-0.274c0.585-0.788 1.26-1.463 2.022-2.030l0.026-0.018v-26.624z" />
<glyph unicode="&#xe90b;" glyph-name="question" d="M512-64c-282.77 0-512 229.23-512 512s229.23 512 512 512c282.77 0 512-229.23 512-512v0c-0.029-282.758-229.241-511.97-511.997-512h-0.003zM515.789 908.8c-254.493 0-460.8-206.307-460.8-460.8s206.307-460.8 460.8-460.8c254.493 0 460.8 206.307 460.8 460.8v0c0 254.493-206.307 460.8-460.8 460.8v0zM623.718 494.694c-8.861-8.654-18.685-16.394-29.275-23.025l-0.728-0.425c-10.662-6.653-19.892-13.505-28.532-21.017l0.27 0.23c-7.072-6.639-13.044-14.34-17.683-22.871l-0.237-0.476c-5.379-10.191-10.381-22.194-14.316-34.671l-0.429-1.579c-4.326-13.86-8.911-25.424-14.227-36.574l0.711 1.655c-1.957-6.059-6.179-10.914-11.643-13.661l-0.133-0.060c-3.686-0.717-8.499 6.042-14.336 20.48-4.048 9.801-7.134 21.202-8.728 33.075l-0.079 0.717c-1.843 13.21-3.277 27.648-4.403 43.315-0.391 2.76-0.614 5.948-0.614 9.188 0 9.309 1.843 18.188 5.185 26.291l-0.167-0.459c5.632 9.434 13.26 17.127 22.342 22.672l0.288 0.163 28.672 17.92c9.197 5.506 16.85 12.636 22.781 21.065l0.156 0.234c3.477 5.375 5.544 11.944 5.544 18.996 0 2.703-0.304 5.335-0.879 7.864l0.045-0.237c-2.83 10.206-8.711 18.777-16.585 24.906l-0.106 0.079c-10.443 8.236-23.793 13.211-38.304 13.211-0.142 0-0.283 0-0.425-0.001h0.022c-1.607 0.146-3.476 0.229-5.365 0.229-12.225 0-23.637-3.477-33.302-9.497l0.267 0.155c-8.884-5.331-15.535-13.61-18.658-23.459l-0.082-0.298-3.174-23.245c-1.961-8.926-5.895-16.727-11.333-23.227l0.069 0.085c-3.844-6.128-9.955-10.531-17.131-12.052l-0.175-0.031c-8.127 0.9-15.175 4.914-20.029 10.803l-0.041 0.052c-12.633 9.969-20.669 25.281-20.669 42.468 0 2.574 0.18 5.106 0.529 7.583l-0.033-0.285c0.797 13.374 4.264 25.765 9.872 36.892l-0.247-0.54c7.075 13.898 16.274 25.68 27.316 35.422l0.128 0.11c12.029 11.14 27.044 19.224 43.709 22.923l0.63 0.117c13.997 3.386 30.067 5.328 46.59 5.328 0.397 0 0.793-0.001 1.189-0.003h-0.061c13.969-0.407 27.301-2.213 40.141-5.287l-1.331 0.269c16.030-4.109 30.068-9.754 43.124-16.96l-0.935 0.473c14.628-7.356 26.78-17.673 36.057-30.242l0.193-0.274c8.613-12.12 14.716-26.623 17.229-42.324l0.077-0.581c1.241-6.229 1.951-13.39 1.951-20.718 0-8.406-0.935-16.594-2.705-24.465l0.14 0.741c-2.718-14.432-9.122-27.053-18.193-37.249l0.068 0.078zM495.104 309.658c4.854 5.359 11.313 9.183 18.616 10.712l0.226 0.040c6.818-1.18 12.805-4.12 17.657-8.332l-0.045 0.038c8.605-6.329 16.197-12.947 23.208-20.135l0.037-0.038c6.153-5.251 10.493-12.465 12.048-20.665l0.035-0.224c-0.702-8.71-4.356-16.454-9.948-22.339l0.015 0.016c-6.343-8.225-13.824-15.186-22.288-20.78l-0.342-0.212c-5.237-4.189-11.61-7.181-18.583-8.46l-0.259-0.039c-7.581 1.162-14.295 4.217-19.845 8.665l0.082-0.064c-9.085 5.867-16.539 13.484-22.047 22.429l-0.174 0.304c-4.325 5.711-7.043 12.851-7.37 20.61l-0.003 0.075c1.538 6.54 4.614 12.212 8.832 16.822l-0.026-0.028c6.224 7.965 12.835 15.031 20.019 21.471l0.154 0.136z" />
<glyph unicode="&#xe90c;" glyph-name="c-kick" d="M849.161 745.15c-0.26-0.006-0.566-0.009-0.872-0.009-23.732 0-42.97 19.238-42.97 42.97s19.238 42.97 42.97 42.97c23.729 0 42.965-19.233 42.97-42.961v0c0.001-0.114 0.002-0.248 0.002-0.382 0-23.349-18.789-42.31-42.073-42.588h-0.026zM617.434-28.539c-200.249-118.215-361.055 77.862-316.302 257.896s46.649 138.885-42.098 322.37c-117.191 242.726 383.052 283.42 463.834 236.392 301.511-175.938 94.815-698.368-105.434-816.507zM722.868 830.938c-0.26-0.006-0.566-0.009-0.872-0.009-23.732 0-42.97 19.238-42.97 42.97s19.238 42.97 42.97 42.97c23.729 0 42.965-19.233 42.97-42.961v0c0-0.057 0-0.125 0-0.193 0-23.364-18.78-42.342-42.068-42.663h-0.030zM575.336 830.938c-0.452-0.011-0.984-0.018-1.517-0.018-35.608 0-64.474 28.866-64.474 64.474s28.866 64.474 64.474 64.474c35.602 0 64.464-28.856 64.474-64.455v-0.001c0.001-0.126 0.001-0.275 0.001-0.425 0-34.969-28.070-63.381-62.906-63.935l-0.052-0.001zM406.566 830.938c-0.338-0.006-0.738-0.010-1.138-0.010-35.608 0-64.474 28.866-64.474 64.474s28.866 64.474 64.474 64.474c35.604 0 64.468-28.86 64.474-64.463v-0.001c0.003-0.214 0.004-0.468 0.004-0.721 0-35.042-28.322-63.469-63.324-63.639h-0.016zM216.936 744.998c-0.519-0.011-1.131-0.018-1.745-0.018-47.463 0-85.94 38.477-85.94 85.94s38.477 85.94 85.94 85.94c47.457 0 85.93-38.467 85.94-85.921v-0.001c0.002-0.238 0.004-0.519 0.004-0.8 0-46.661-37.602-84.54-84.157-84.988h-0.043z" />
<glyph unicode="&#xe90d;" glyph-name="c-you" d="M791.714 458.779v-0.862h-266.779v272.923h1.078c12.218 127.5 118.788 226.408 248.459 226.408 137.813 0 249.533-111.72 249.533-249.533 0-131.746-102.099-239.645-231.49-248.89l-0.8-0.046zM784.707 722.863h-189.709v-194.021h189.709v194.021zM249.533-64c-0.247-0.001-0.539-0.001-0.832-0.001-138.557 0-250.88 112.323-250.88 250.88 0 132.782 103.154 241.471 233.697 250.301l0.768 0.042v0.862h266.779v-272.923h-1.617c-10.764-128.531-117.574-228.818-247.881-229.16h-0.035zM232.286 458.779c-131.739 8.318-235.437 117.2-235.437 250.303 0 138.498 112.275 250.772 250.772 250.772 130.838 0 238.273-100.199 249.757-228.049l0.070-0.966h1.617v-272.923h-266.779v0.862zM791.714 437.814v-0.593c131.551-8.566 235.008-117.365 235.008-250.327 0-138.527-112.299-250.826-250.826-250.826-130.876 0-238.341 100.236-249.813 228.128l-0.070 0.965h-1.078v272.923h266.779z" />
<glyph unicode="&#xe90f;" glyph-name="c-code" d="M889.263-64h-754.526c-59.53 0-107.789 48.259-107.789 107.789v0 538.947c0 59.53 48.259 107.789 107.789 107.789v0h107.789c0 148.826 120.647 269.474 269.474 269.474s269.474-120.647 269.474-269.474v0h107.789c59.53 0 107.789-48.259 107.789-107.789v0-538.947c0-59.53-48.259-107.789-107.789-107.789v0zM512 906.105c-119.061 0-215.579-96.518-215.579-215.579v0h431.158c0 119.061-96.518 215.579-215.579 215.579v0zM943.158 582.737c0 29.765-24.129 53.895-53.895 53.895v0h-754.526c-29.765 0-53.895-24.129-53.895-53.895v0-538.947c0-29.765 24.129-53.895 53.895-53.895v0h754.526c29.765 0 53.895 24.129 53.895 53.895v0 538.947zM538.947 205.474c-74.413 0-134.737 60.324-134.737 134.737s60.324 134.737 134.737 134.737c74.413 0 134.737-60.324 134.737-134.737v0c0-74.413-60.324-134.737-134.737-134.737v0z" />
<glyph unicode="&#xe910;" glyph-name="c-speak" d="M1024 524.595c0 183.91-229.376 333.005-512 333.005s-512-149.094-512-333.005c0-156.877 167.936-288.768 393.626-323.584-16.335-64.883-50.441-120.258-96.808-162.372l-0.267-0.239c92.57-0.41 183.91 81.92 246.579 154.419 268.288 10.24 480.87 154.829 480.87 331.776z" />
<glyph unicode="&#xe911;" d="M1024 448c0-282.77-229.23-512-512-512s-512 229.23-512 512c0 282.77 229.23 512 512 512s512-229.23 512-512z" />
<glyph unicode="&#xe912;" d="M793.6 550.4v-281.6c0-56.554-45.846-102.4-102.4-102.4v0h-358.4c-56.554 0-102.4 45.846-102.4 102.4v0 281.6h563.2zM461.581 489.651c-0.237 3.382-1.128 6.506-2.547 9.317l0.064-0.14c-1.749 3.466-4.134 6.371-7.025 8.663l-0.053 0.041c-2.83 2.405-6.17 4.311-9.824 5.532l-0.211 0.061c-2.709 0.774-5.821 1.22-9.036 1.22-1.326 0-2.634-0.076-3.921-0.223l0.157 0.015c-4.658-0.558-8.8-1.376-12.827-2.473l0.616 0.143c-4.635-1.178-8.598-2.562-12.402-4.241l0.498 0.196-17.267-7.77c-3.799-1.745-7.074-3.798-10.044-6.211l0.085 0.067c-2.777-2.185-5.068-4.847-6.779-7.88l-0.069-0.133c-2.108-4.709-3.337-10.207-3.337-15.991 0-1.215 0.054-2.418 0.16-3.606l-0.011 0.153c0.159-7.653 0.832-15.012 1.989-22.209l-0.121 0.91c0.806-5.516 2.932-10.424 6.048-14.543l-0.057 0.079c2.732-4.542 7.509-7.612 13.025-7.934l0.044-0.002 7.936 1.088c0.206 0.027 0.444 0.042 0.685 0.042 1.442 0 2.756-0.546 3.748-1.442l-0.005 0.004c0.738-0.83 1.211-1.909 1.279-3.097l0.001-0.014q0.077-1.715 0.077-8.090v-147.277c-0.005-0.43-0.008-0.938-0.008-1.446 0-5.657 0.342-11.233 1.007-16.711l-0.065 0.659c0.432-4.426 2.302-8.35 5.13-11.364l-0.010 0.010c2.855-2.836 6.55-4.83 10.68-5.575l0.123-0.018c4.43-0.823 9.528-1.294 14.736-1.294 0.535 0 1.068 0.005 1.6 0.015l-0.080-0.001c0.696-0.046 1.509-0.071 2.328-0.071 3.913 0 7.688 0.592 11.24 1.692l-0.269-0.072c3.201 1.24 5.863 3.276 7.827 5.869l0.032 0.044c2.2 2.928 3.701 6.5 4.187 10.388l0.011 0.108c0.602 4.415 0.945 9.518 0.945 14.702 0 0.547-0.004 1.092-0.011 1.637l0.001-0.083v199.334q-0.051 23.475-0.282 27.917zM448 413.747c-0.813 1.901-1.511 4.142-1.984 6.465l-0.039 0.229q-0.704 3.494-1.28 5.286t-2.56 8.96l-5.12 18.035c-0.814 2.919-1.982 5.472-3.484 7.789l0.066-0.109c-0.83 1.354-2.204 2.306-3.809 2.556l-0.031 0.004c-1.359-0.183-2.493-1.007-3.1-2.154l-0.011-0.022c-1.122-1.903-1.983-4.115-2.46-6.467l-0.023-0.138q-1.088-4.518-2.176-7.936c-0.261-2.882-1.788-5.362-4.014-6.904l-0.031-0.020c-1.79 0.756-3.105 2.328-3.488 4.238l-0.006 0.037c-0.979 2.177-1.959 4.863-2.764 7.625l-0.116 0.465c-0.307 1.802-1.078 3.386-2.186 4.672l0.010-0.012c-0.564 0.314-1.237 0.499-1.953 0.499-0.441 0-0.866-0.070-1.263-0.2l0.029 0.008c-1.938-1.41-3.184-3.67-3.187-6.22v0l-1.395-7.309-1.28-6.605c-0.287-1.435-0.663-2.687-1.141-3.887l0.053 0.15c-0.175-0.855-0.72-1.555-1.456-1.938l-0.016-0.007c-0.135-0.030-0.291-0.047-0.45-0.047-1.025 0-1.884 0.714-2.107 1.671l-0.003 0.015c-0.912 2.11-1.739 4.627-2.345 7.228l-0.061 0.311-1.869 5.76-1.562 11.661c-0.137 0.805-0.528 1.501-1.086 2.020l-0.002 0.002c-0.726-0.186-1.286-0.746-1.469-1.458l-0.003-0.014c-0.427-0.872-0.776-1.887-0.996-2.949l-0.015-0.085-1.28-7.309q-0.781-3.738-1.088-5.76c-0.013-0.978-0.428-1.857-1.086-2.482l-0.002-0.001c-0.462-0.282-1.020-0.45-1.618-0.45-0.868 0-1.654 0.353-2.222 0.923v0c-1.422 1.716-2.284 3.939-2.284 6.365 0 0.278 0.011 0.554 0.034 0.826l-0.002-0.036-1.088 7.309c-0.407 2.345-0.639 5.046-0.639 7.802 0 0.376 0.004 0.751 0.013 1.124l-0.001-0.056c-0.056 0.972-0.088 2.109-0.088 3.254 0 3.603 0.316 7.133 0.922 10.562l-0.053-0.363c0.526 3.552 2.026 6.684 4.217 9.199l-0.018-0.022c2.567 2.588 5.519 4.788 8.764 6.51l0.196 0.095q5.914 3.264 10.24 5.44t10.867 4.595c3.2 1.312 7.193 2.627 11.287 3.687l0.693 0.153c3.26 0.868 7.006 1.375 10.868 1.395h0.012c0.047 0 0.102 0.001 0.157 0.001 4.433 0 8.59-1.183 12.172-3.25l-0.118 0.063c3.346-2.017 6.005-4.873 7.729-8.281l0.053-0.116c1.604-2.965 2.753-6.421 3.247-10.084l0.017-0.156q0.538-4.902 0.704-9.254v-41.434q-0.154-10.419 0-14.694c0.018-0.26 0.028-0.563 0.028-0.868 0-2.39-0.617-4.636-1.702-6.587l0.035 0.069c-0.517-1.551-1.956-2.65-3.651-2.65-0.112 0-0.222 0.005-0.331 0.014l0.014-0.001c-1.408 0.567-2.457 1.764-2.81 3.232l-0.006 0.032zM638.899 242.227c4.889 4.868 7.914 11.605 7.914 19.048 0 0.603-0.020 1.201-0.059 1.794l0.004-0.081c0.008 0.401 0.013 0.874 0.013 1.348 0 6.317-0.827 12.441-2.378 18.27l0.112-0.495c-1.204 3.954-3.359 7.318-6.206 9.945l-0.015 0.014c-4.173 2.945-9.316 4.779-14.876 4.978l-0.048 0.001c-3.375 0.372-7.289 0.583-11.253 0.583-3.402 0-6.767-0.156-10.089-0.462l0.427 0.032c-2.312-0.349-4.979-0.548-7.693-0.548-1.798 0-3.576 0.087-5.329 0.258l0.223-0.018c-1.4 0.239-2.621 0.878-3.573 1.794l0.002-0.002c-0.664 0.777-1.092 1.772-1.164 2.865l-0.001 0.015c0.061 2.455 0.868 4.711 2.2 6.563l-0.024-0.035 11.661 21.146 25.344 42.24c5.64 9.637 10.67 20.799 14.498 32.505l0.35 1.236c3.026 10.001 5.060 21.589 5.669 33.553l0.014 0.354c0.218 2.486 0.343 5.379 0.343 8.3 0 10.239-1.529 20.121-4.37 29.43l0.187-0.713c-2.704 8.704-7.166 16.184-13.004 22.349l0.024-0.026c-9.845 9.905-23.477 16.035-38.541 16.035-1.843 0-3.665-0.092-5.461-0.271l0.227 0.018c-0.365 0.008-0.796 0.013-1.227 0.013-13.047 0-25.070-4.39-34.67-11.773l0.134 0.099c-6.385-5.511-11.666-12.095-15.606-19.502l-0.177-0.364c-2.652-5.234-4.73-11.305-5.924-17.687l-0.066-0.425q-1.395-8.474-2.483-23.565-2.176-29.555 3.418-34.918c2.738-2.852 5.951-5.222 9.516-6.989l0.199-0.089c3.496-1.195 7.524-1.885 11.713-1.885 0.382 0 0.763 0.006 1.143 0.017l-0.056-0.001c1.227-0.184 2.644-0.289 4.085-0.289 5.753 0 11.116 1.672 15.628 4.557l-0.117-0.070c3.497 3.697 5.83 8.528 6.391 13.887l0.009 0.103 1.395 18.816c0 0.019 0 0.042 0 0.065 0 3.521 1.231 6.755 3.286 9.294l-0.022-0.028c1.222 1.22 2.824 2.059 4.614 2.324l0.045 0.005c2.234-0.199 4.194-1.238 5.586-2.795l0.007-0.008c1.914-2.224 3.079-5.14 3.079-8.328 0-0.38-0.017-0.757-0.049-1.129l0.003 0.048c0.001-0.154 0.002-0.337 0.002-0.52 0-4.496-0.467-8.884-1.355-13.116l0.073 0.414c-1.069-5.389-2.25-9.88-3.666-14.265l0.248 0.889c-2.365-6.786-4.958-12.537-7.982-18.017l0.302 0.596q-5.504-10.624-18.214-31.219t-20.134-34.445c-4.675-8.536-9.19-18.652-12.912-29.143l-0.464-1.5c-3.432-8.311-5.425-17.962-5.425-28.078 0-1.61 0.050-3.207 0.15-4.792l-0.011 0.217c0.353-7.452 3.462-14.116 8.323-19.050l-0.003 0.004c3.205-3.258 7.389-5.544 12.075-6.38l0.136-0.020q5.44-0.461 10.88-0.461l58.88-0.154c0.892-0.086 1.927-0.135 2.975-0.135 8.099 0 15.512 2.931 21.239 7.79l-0.047-0.039zM626.278 414.72c-0.702 1.732-1.248 3.752-1.545 5.851l-0.016 0.139q-0.23 2.33-0.704 8.858t-1.088 12.902q-0.627 6.4-1.638 11.738c-0.045 2.425-1.083 4.599-2.722 6.14l-0.005 0.004c-0.376 0.123-0.808 0.195-1.258 0.195-0.98 0-1.88-0.339-2.591-0.905l0.008 0.006c-1.59-1.387-2.975-2.946-4.144-4.665l-0.054-0.084c-0.626-1.213-1.742-2.098-3.080-2.401l-0.031-0.006c-0.986 0.182-1.764 0.909-2.018 1.851l-0.004 0.018c-0.717 1.925-1.315 4.2-1.688 6.551l-0.027 0.208c-0.128 2.098-0.808 4.014-1.895 5.634l0.026-0.041q-2.022 1.088-5.286-5.286l-3.11-6.848c-0.704-1.601-2.102-2.785-3.803-3.18l-0.037-0.007c-1.255 0.139-2.264 1.045-2.556 2.233l-0.004 0.020c-0.505 1.269-0.948 2.779-1.253 4.339l-0.027 0.167c-0.536 2.432-1.127 4.462-1.831 6.439l0.115-0.371c-0.547 1.955-1.399 3.662-2.513 5.162l0.030-0.042c-0.842 1.052-2.126 1.721-3.567 1.721-0.305 0-0.603-0.030-0.891-0.087l0.029 0.005c-1.42-0.754-2.466-2.052-2.871-3.608l-0.009-0.040c-1.046-3.183-2.045-7.158-2.79-11.221l-0.090-0.594q-1.792-8.87-2.483-12.979c-0.39-2.588-1.179-4.92-2.31-7.042l0.057 0.117c-0.629-1.618-2.011-2.818-3.704-3.181l-0.034-0.006c-1.242 0.105-2.275 0.902-2.719 2.001l-0.008 0.022c-0.767 1.765-1.234 3.817-1.28 5.973v0.018l-0.781 5.286c-0.393 5.16-1.472 9.947-3.152 14.441l0.118-0.361c-0.537 1.328-1.64 2.33-3.001 2.719l-0.032 0.008c-1.642-0.343-3.025-1.267-3.955-2.542l-0.013-0.018c-1.99-2.342-3.663-5.038-4.902-7.962l-0.077-0.204c-1.361-3.156-2.895-5.865-4.678-8.385l0.095 0.142c-0.977-1.974-2.858-3.371-5.087-3.657l-0.033-0.003c-1.526 0.848-2.636 2.289-3.026 4.004l-0.008 0.041c-0.309 1.438-0.485 3.089-0.485 4.782 0 2.656 0.435 5.211 1.238 7.597l-0.049-0.168 2.176 10.573c1.255 4.881 2.906 9.14 4.986 13.139l-0.16-0.339c2.514 4.933 5.63 9.157 9.325 12.794l0.006 0.006c3.497 3.58 7.489 6.655 11.871 9.118l0.264 0.136c3.741 2.067 8.074 3.73 12.647 4.762l0.332 0.063c4.386 0.972 9.45 1.565 14.639 1.638l0.055 0.001c0.085 0 0.185 0.001 0.285 0.001 5.252 0 10.359-0.625 15.248-1.806l-0.442 0.090c4.982-1.191 9.37-3.091 13.317-5.62l-0.172 0.103c4.42-2.978 8.119-6.652 11.033-10.907l0.090-0.139c3.275-4.574 5.972-9.858 7.82-15.525l0.116-0.411c1.949-6.271 3.284-13.545 3.726-21.059l0.012-0.253c0.207-2.534 0.325-5.486 0.325-8.466 0-4.636-0.285-9.205-0.84-13.691l0.054 0.537-2.995-14.118c-0.288-1.938-1.062-3.656-2.193-5.078l0.017 0.022c-0.52-0.786-1.4-1.298-2.4-1.298-0.309 0-0.606 0.049-0.885 0.139l0.020-0.006c-1.568 0.851-2.694 2.348-3.028 4.123l-0.006 0.037zM230.4 563.2h563.2v51.2c0 56.554-45.846 102.4-102.4 102.4h-358.4c-56.554 0-102.4-45.846-102.4-102.4v-51.2zM409.6 665.6c21.208 0 38.4-17.192 38.4-38.4s-17.192-38.4-38.4-38.4c-21.208 0-38.4 17.192-38.4 38.4v0c0 21.208 17.192 38.4 38.4 38.4v0zM614.4 665.6c21.208 0 38.4-17.192 38.4-38.4s-17.192-38.4-38.4-38.4c-21.208 0-38.4 17.192-38.4 38.4v0c0 21.208 17.192 38.4 38.4 38.4v0z" />
<glyph unicode="&#xe913;" glyph-name="a-switch" d="M511.966-55.279c-0.589-0.003-1.287-0.005-1.985-0.005-239.77 0-434.142 194.372-434.142 434.142 0 188.568 120.221 349.057 288.198 409.002l3.033 0.944v-158.413c-87.208-51.128-144.842-144.4-144.842-251.133 0-160.236 129.897-290.133 290.133-290.133s290.133 129.897 290.133 290.133c0 107.033-57.958 200.529-144.202 250.817l-1.379 0.743v157.986c171.010-60.888 291.232-221.377 291.232-409.946 0-239.77-194.372-434.142-434.142-434.142-0.716 0-1.432 0.002-2.147 0.005h0.11zM554.086 516.198h-83.524c-17.145 0-31.044 13.899-31.044 31.044v0 372.838c0 17.145 13.899 31.044 31.044 31.044v0h83.524c17.145 0 31.044-13.899 31.044-31.044v-372.855c0-17.145-13.899-31.044-31.044-31.044v0z" />
<glyph unicode="&#xe914;" d="M1024 448c0-282.77-229.23-512-512-512s-512 229.23-512 512c0 282.77 229.23 512 512 512s512-229.23 512-512z" />
<glyph unicode="&#xe915;" d="M691.2 346.24v-231.040c0-21.208-17.192-38.4-38.4-38.4s-38.4 17.192-38.4 38.4v0 556.8c0 31.812 25.788 57.6 57.6 57.6v0h12.8c31.812 0 57.6-25.788 57.6-57.6v0-268.8c-0.059-29.472-22.317-53.727-50.939-56.936l-0.261-0.024zM422.4 410.483v-295.283c0-21.208-17.192-38.4-38.4-38.4s-38.4 17.192-38.4 38.4v0 295.283c-50.751 6.577-89.558 49.509-89.6 101.512v166.404c0.007 37.674 20.384 70.588 50.716 88.327l0.484 0.261v-229.389h51.2v243.2h51.2v-243.2h51.2v229.389c30.816-18.001 51.193-50.914 51.2-88.588v-166.401c-0.042-52.008-38.849-94.94-89.086-101.462l-0.514-0.055z" />
<glyph unicode="&#xe916;" d="M1024 448c0-282.77-229.23-512-512-512s-512 229.23-512 512c0 282.77 229.23 512 512 512s512-229.23 512-512z" />
<glyph unicode="&#xe917;" d="M808.115 153.6h-592.23c-13.191 0-23.885 10.694-23.885 23.885s10.694 23.885 23.885 23.885h592.23c13.191 0 23.885-10.694 23.885-23.885s-10.694-23.885-23.885-23.885v0zM694.797 378.586c0.007 25.246 20.475 45.709 45.722 45.709h0.166c25.244 0 45.709-20.465 45.709-45.709v0-113.523h-91.597v113.523zM548.403 457.843c0 0.004 0 0.008 0 0.013 0 25.244 20.465 45.709 45.709 45.709h0.166c25.251 0 45.722-20.47 45.722-45.722v0-192.768h-91.597v192.768zM393.203 617.19c0 25.184 20.416 45.6 45.6 45.6s45.6-20.416 45.6-45.6v0-352.128h-91.2v352.128zM237.594 696.691c0.007 25.241 20.467 45.701 45.708 45.709h0.18c25.251 0 45.722-20.47 45.722-45.722v0-431.616h-91.61v431.629z" />
<glyph unicode="&#xe918;" d="M1024 448c0-282.77-229.23-512-512-512s-512 229.23-512 512c0 282.77 229.23 512 512 512s512-229.23 512-512z" />
<glyph unicode="&#xe919;" d="M256 716.8h281.6c56.554 0 102.4-45.846 102.4-102.4v0-371.2h-435.2v422.4c0 28.277 22.923 51.2 51.2 51.2v0z" />
<glyph unicode="&#xe91a;" d="M371.2 307.2v0c-35.346 0-64-28.654-64-64v0c0-35.346 28.654-64 64-64s64 28.654 64 64c0 35.346-28.654 64-64 64zM371.2 281.6c21.208 0 38.4-17.192 38.4-38.4s-17.192-38.4-38.4-38.4c-21.208 0-38.4 17.192-38.4 38.4v0c0 21.208 17.192 38.4 38.4 38.4v0z" />
<glyph unicode="&#xe91b;" d="M716.8 281.6v0c-28.277 0-51.2-22.923-51.2-51.2v0c0-28.277 22.923-51.2 51.2-51.2s51.2 22.923 51.2 51.2c0 28.277-22.923 51.2-51.2 51.2zM716.8 261.12c16.966 0 30.72-13.754 30.72-30.72s-13.754-30.72-30.72-30.72c-16.966 0-30.72 13.754-30.72 30.72v0c0 16.966 13.754 30.72 30.72 30.72v0z" />
<glyph unicode="&#xe91c;" d="M556.8 268.8h-172.8v128h103.040c-0.282 4.262-0.64 8.486-0.64 12.8 0 106.039 85.961 192 192 192s192-85.961 192-192v0c0-4.326-0.358-8.55-0.653-12.8h0.653v-128h-83.2" />
<glyph unicode="&#xe91d;" d="M1024 448c0-282.77-229.23-512-512-512s-512 229.23-512 512c0 282.77 229.23 512 512 512s512-229.23 512-512z" />
<glyph unicode="&#xe91e;" d="M762.765 171.52h-512.525c-47.233 0.246-85.428 38.593-85.428 85.861 0 0.153 0 0.307 0.001 0.46v-0.024 345.203c-0.001 0.13-0.001 0.283-0.001 0.436 0 47.268 38.195 85.615 85.405 85.861h85.45v-73.357c0-0.046 0-0.1 0-0.154 0-16.54 13.361-29.96 29.879-30.054h8.559c16.533 0.087 29.901 13.509 29.901 30.054 0 0.054 0 0.108 0 0.162v-0.008 73.37h205.005v-73.357c0-0.046 0-0.1 0-0.154 0-16.54 13.361-29.96 29.879-30.054h8.547c16.533 0.087 29.901 13.509 29.901 30.054 0 0.054 0 0.108 0 0.162v-0.008 73.357h85.414c47.233-0.246 85.428-38.593 85.428-85.861 0-0.153 0-0.307-0.001-0.46v0.024-345.203c0.001-0.13 0.001-0.283 0.001-0.436 0-47.266-38.186-85.613-85.391-85.874h-0.025zM643.187 603.021c-9.448 0.051-17.088 7.722-17.088 17.177 0 0.032 0 0.063 0 0.095v-0.005 138.086c-0.004 0.139-0.006 0.303-0.006 0.468 0 9.437 7.651 17.088 17.088 17.088s17.088-7.651 17.088-17.088c0-0.164-0.002-0.328-0.007-0.492l0.001 0.024v-138.086c0-0.027 0-0.058 0-0.090 0-9.451-7.633-17.119-17.070-17.177h-0.006zM369.83 603.021c-9.448 0.051-17.088 7.722-17.088 17.177 0 0.032 0 0.063 0 0.095v-0.005 138.086c-0.004 0.139-0.006 0.303-0.006 0.468 0 9.437 7.651 17.088 17.088 17.088s17.088-7.651 17.088-17.088c0-0.164-0.002-0.328-0.007-0.492l0.001 0.024v-138.086c0-0.027 0-0.058 0-0.090 0-9.451-7.633-17.119-17.070-17.177h-0.006z" />
<glyph unicode="&#xe91f;" d="M300.275 347.84c2.353 1.492 4.264 3.477 5.627 5.82l0.043 0.081c2.024 3.438 3.766 7.41 5.020 11.594l0.1 0.387q2.483 7.808 4.147 14.656l2.765 13.325q1.933 9.139 2.214 10.662t1.933 15.603c0.555 3.406 0.873 7.332 0.873 11.333 0 1.823-0.066 3.63-0.195 5.419l0.014-0.24c-0.374 2.983-1.302 5.683-2.68 8.093l0.056-0.106c-1.21 2.062-2.956 3.693-5.050 4.73l-0.070 0.031c-1.73 0.904-3.769 1.459-5.932 1.523h-0.020c-2.138-0.281-4.030-1.168-5.543-2.481l0.013 0.011c-1.681-1.472-2.993-3.323-3.808-5.422l-0.032-0.094q-1.382-3.418-2.765-7.987c-0.72-2.172-1.395-4.859-1.889-7.609l-0.056-0.378c0.013-0.122 0.021-0.265 0.021-0.408 0-1.209-0.543-2.292-1.398-3.017l-0.006-0.005c-0.182-0.106-0.4-0.168-0.634-0.168-0.346 0-0.66 0.137-0.89 0.36v0c-0.691 1.13-1.101 2.498-1.101 3.962 0 0.011 0 0.022 0 0.033v-0.002c-0.59 3.428-1.551 6.491-2.861 9.362l0.096-0.236q-2.355 5.709-2.624 6.848c-1.579 3.496-4.968 5.919-8.94 6.079l-0.020 0.001c-3.153-0.176-5.937-1.621-7.874-3.827l-0.011-0.013c-2.429-3.308-4.101-7.317-4.683-11.67l-0.014-0.132c-0.632-3.832-1.451-7.165-2.495-10.396l0.14 0.502c-0.156-0.696-0.634-1.254-1.266-1.518l-0.014-0.005c-1.53 1.249-2.499 3.135-2.499 5.247 0 0.162 0.006 0.323 0.017 0.483l-0.001-0.021c-0.859 3.965-2.099 7.463-3.717 10.74l0.12-0.269c-1.423 2.855-3.181 5.303-5.265 7.429l0.005-0.005c-1.608 1.764-3.662 3.094-5.984 3.814l-0.096 0.026c-0.289 0.034-0.624 0.054-0.964 0.054-1.868 0-3.599-0.59-5.015-1.595l0.027 0.018c-2.035-1.409-3.61-3.351-4.539-5.625l-0.030-0.084c-1.159-2.809-1.866-6.066-1.945-9.479l-0.001-0.032q-0.282-6.106 0-13.325c0.232-5.521 0.777-10.701 1.625-15.778l-0.102 0.738q1.28-7.795 4.147-19.418t6.080-20.928c1.691-5.523 4.395-10.296 7.923-14.33l-0.039 0.045c2.649-3.005 6.494-4.902 10.784-4.941h0.007c0.336-0.040 0.725-0.063 1.12-0.063 2.355 0 4.521 0.809 6.236 2.165l-0.021-0.016c1.86 1.374 3.39 3.079 4.527 5.041l0.042 0.079q1.37 2.662 2.496 4.954c0.235 1.206 0.942 2.214 1.916 2.844l0.017 0.010c0.755-0.825 1.293-1.86 1.517-3.007l0.006-0.039c0.76-2.186 1.694-4.076 2.828-5.826l-0.063 0.104c1.070-1.774 2.637-3.155 4.506-3.969l0.063-0.025c1.796-0.723 3.879-1.143 6.060-1.143 0.12 0 0.239 0.001 0.358 0.004h-0.018c0.447-0.052 0.964-0.082 1.488-0.082 2.261 0 4.393 0.556 6.266 1.539l-0.074-0.035zM280.627 436.902c1.894-2.189 3.248-4.896 3.823-7.88l0.017-0.107q1.382-5.517 2.56-13.325t1.805-10.24c0.162-1.239 0.657-2.339 1.391-3.237l-0.009 0.011c0.296-0.815 1.064-1.387 1.966-1.387 0.236 0 0.462 0.039 0.673 0.111l-0.015-0.004c1.495 1.096 2.536 2.734 2.836 4.619l0.005 0.040c0.982 3.409 1.945 7.779 2.669 12.229l0.096 0.711c0.776 4.919 1.694 9.095 2.83 13.181l-0.194-0.816c0.843 2.636 2.119 4.917 3.763 6.879l-0.026-0.031c1.261 1.808 3.142 3.109 5.33 3.599l0.059 0.011c0.104 0.008 0.226 0.012 0.349 0.012 2.262 0 4.169-1.516 4.763-3.587l0.009-0.035c0.777-2.178 1.319-4.704 1.517-7.325l0.006-0.099c-0.060-3.749-0.361-7.372-0.887-10.921l0.055 0.451q-0.832-6.285-3.046-17.51t-3.738-17.51-3.315-12.186c-1.114-3.829-2.42-7.111-3.995-10.234l0.155 0.339c-0.901-2.073-2.268-3.797-3.975-5.097l-0.031-0.023c-1.443-1.141-3.289-1.83-5.295-1.83-2.653 0-5.024 1.204-6.597 3.096l-0.011 0.014c-1.467 2.014-2.646 4.354-3.413 6.874l-0.043 0.166c-0.738 2.402-1.537 4.421-2.472 6.362l0.117-0.269c-0.597 1.515-1.945 2.616-3.572 2.852l-0.024 0.003c-2.089-1.525-3.552-3.798-3.998-6.418l-0.008-0.059c-1.302-3.686-2.598-6.703-4.059-9.623l0.219 0.484c-0.92-1.799-2.413-3.196-4.233-3.973l-0.055-0.021c-0.938-0.51-2.055-0.81-3.241-0.81-1.034 0-2.014 0.228-2.894 0.636l0.043-0.018c-2.665 1.532-4.789 3.739-6.179 6.39l-0.041 0.087c-1.852 2.89-3.529 6.215-4.855 9.712l-0.125 0.374c-1.203 3.29-2.675 8.179-4.429 14.643s-3.046 11.802-3.84 15.987-1.613 10.086-2.355 17.702c-0.379 2.076-0.596 4.464-0.596 6.903 0 2.131 0.165 4.223 0.484 6.264l-0.029-0.227c0.412 2.385 1.498 4.466 3.051 6.098l-0.005-0.005c0.792 0.671 1.825 1.079 2.954 1.079 0.908 0 1.754-0.264 2.466-0.719l-0.018 0.011c2.207-1.019 3.944-2.744 4.953-4.879l0.026-0.061c1.467-3.324 2.839-7.319 3.888-11.444l0.119-0.55c1.249-4.113 2.27-9.016 2.866-14.048l0.040-0.416c-0.015-0.199-0.024-0.432-0.024-0.666 0-2.465 0.954-4.708 2.512-6.38l-0.005 0.006c0.292-0.444 0.788-0.734 1.352-0.734 0.263 0 0.511 0.063 0.731 0.175l-0.009-0.004c0.945 1.125 1.521 2.588 1.523 4.185v0.001q0.55 3.61 1.933 9.331t2.765 12.186c0.63 3.662 1.939 6.928 3.799 9.804l-0.062-0.102c1.192 1.883 3.112 3.214 5.354 3.603l0.047 0.007c1.548-0.376 2.856-1.235 3.791-2.405l0.011-0.014zM363.635 420.723c-2.133-1.101-3.899-2.641-5.231-4.512l-0.030-0.044c-1.065-1.221-1.733-2.812-1.792-4.558v-0.012c0.355-1.613 1.507-2.892 3.014-3.42l0.033-0.010c1.926-0.965 4.197-1.53 6.6-1.53 0.159 0 0.318 0.002 0.476 0.007l-0.023-0.001c0.675-0.080 1.456-0.126 2.249-0.126 2.521 0 4.933 0.464 7.156 1.312l-0.138-0.046c1.753 0.511 3.143 1.766 3.826 3.392l0.014 0.039c0.001 0.045 0.002 0.097 0.002 0.15 0 1.944-0.794 3.702-2.075 4.969l-0.001 0.001c-1.408 1.936-3.151 3.536-5.157 4.743l-0.079 0.044c-1.261 0.813-2.767 1.359-4.387 1.52l-0.042 0.003c-1.717-0.584-3.176-1.233-4.564-1.994l0.148 0.074zM329.472 386.662q0.41-3.994 1.28-8.563c0.562-3.155 1.428-5.964 2.591-8.613l-0.095 0.242c1.425-3.177 2.904-5.86 4.57-8.41l-0.142 0.231c1.421-2.399 3.071-4.465 4.968-6.274l0.011-0.011c1.83-1.531 3.859-3.034 5.973-4.418l0.247-0.152c2.227-1.557 4.791-2.859 7.532-3.778l0.212-0.062c2.815-0.737 6.047-1.16 9.378-1.16 0.447 0 0.893 0.008 1.337 0.023l-0.064-0.002c0.776-0.060 1.68-0.094 2.593-0.094 4.431 0 8.674 0.804 12.592 2.274l-0.247-0.081c3.86 1.514 7.168 3.643 9.972 6.298l-0.014-0.013c2.354 2.243 4.302 4.887 5.74 7.825l0.072 0.162c1.294 2.802 2.432 6.103 3.242 9.53l0.073 0.365c0.3 1.22 0.473 2.62 0.473 4.060 0 1.002-0.083 1.985-0.244 2.942l0.014-0.104-1.664 4.954c-0.091 0.344-0.143 0.739-0.143 1.146s0.052 0.802 0.15 1.178l-0.007-0.032c0.603 1.139 1.283 2.121 2.063 3.013l-0.015-0.018c1.064 1.318 1.989 2.817 2.713 4.427l0.052 0.129c0.812 2.487 1.28 5.35 1.28 8.321 0 0.022 0 0.044 0 0.066v-0.003c0.010 0.379 0.015 0.826 0.015 1.274 0 6.29-1.070 12.33-3.037 17.948l0.116-0.381c-3.095 8.553-8.079 15.783-14.474 21.457l-0.054 0.047c-5.873 4.598-13.174 7.631-21.141 8.36l-0.158 0.012c-0.008 0-0.017 0-0.026 0-3.184 0-6.259-0.468-9.16-1.338l0.225 0.058c-2.999-0.845-5.621-2.079-7.982-3.672l0.097 0.062c-2.576-1.833-4.839-3.771-6.916-5.892l-0.009-0.009c-1.933-1.868-3.661-3.925-5.162-6.149l-0.086-0.136c-1.028-1.624-2.090-3.558-3.040-5.556l-0.147-0.345q-1.523-3.238-2.906-7.053c-0.894-2.417-1.663-5.297-2.172-8.265l-0.042-0.298c-0.538-3.502-0.846-7.541-0.846-11.653 0-0.52 0.005-1.040 0.015-1.558l-0.001 0.078c-0.026-5.606 0.102-9.715 0.384-12.39zM390.477 387.43c1.256-0.691 2.283-1.657 3.027-2.821l0.020-0.033c0.482-1.486 0.76-3.196 0.76-4.97 0-0.53-0.025-1.055-0.073-1.573l0.005 0.066c-0.271-3.785-1.314-7.271-2.973-10.379l0.068 0.139c-1.742-3.683-4.448-6.669-7.796-8.705l-0.089-0.050c-3.983-1.963-8.671-3.111-13.627-3.111-0.709 0-1.412 0.023-2.109 0.070l0.095-0.005c-0.815-0.088-1.76-0.138-2.717-0.138-2.178 0-4.296 0.26-6.324 0.752l0.183-0.037c-3.111 1.068-5.811 2.486-8.244 4.248l0.091-0.062c-2.751 1.737-5.117 3.753-7.164 6.059l-0.029 0.034c-1.867 2.503-3.376 5.411-4.372 8.547l-0.057 0.208c-1.022 2.611-1.933 5.739-2.576 8.963l-0.061 0.368c-0.335 1.915-0.535 4.128-0.55 6.385v0.015c-0.090 1.53-0.141 3.319-0.141 5.12s0.051 3.59 0.152 5.366l-0.011-0.246c0.267 4.884 0.906 9.45 1.897 13.884l-0.105-0.559c1.080 5.049 3.253 9.475 6.266 13.191l-0.045-0.058c2.532 3.373 5.623 6.171 9.162 8.304l0.144 0.080c2.514 1.44 5.431 2.561 8.523 3.205l0.194 0.034c1.884 0.41 4.084 0.685 6.333 0.766l0.067 0.002c3.641-0.218 7.033-1.040 10.159-2.367l-0.2 0.076c2.699-1.107 5.028-2.515 7.099-4.223l-0.047 0.037c1.998-1.813 3.77-3.809 5.312-5.979l0.076-0.113c1.86-2.586 3.57-5.528 4.986-8.632l0.134-0.328c1.183-2.347 2.182-5.079 2.855-7.936l0.051-0.256c0.21-1.022 0.329-2.196 0.329-3.398 0-2.266-0.426-4.433-1.203-6.425l0.041 0.12c-1.14-2.452-2.893-4.456-5.066-5.868l-0.054-0.033c-3.544-1.801-7.727-2.856-12.157-2.856-0.105 0-0.209 0.001-0.313 0.002h0.016c-2.277-0.214-4.924-0.337-7.599-0.337-1.753 0-3.494 0.052-5.221 0.156l0.238-0.011c-0.179 0-2.125 0.243-5.811 0.755-1.009 0.243-2.168 0.382-3.359 0.382-1.462 0-2.874-0.21-4.209-0.601l0.106 0.027c-1.311-0.671-2.3-1.814-2.754-3.199l-0.011-0.039c-0.241-0.816-0.38-1.754-0.38-2.724 0-1.137 0.191-2.229 0.542-3.247l-0.021 0.070c0.61-2.382 1.56-4.474 2.811-6.346l-0.047 0.074c1.123-1.702 2.556-3.107 4.231-4.165l0.057-0.034c2.586-1.261 5.604-2.081 8.79-2.275l0.067-0.003c0.919-0.353 1.982-0.557 3.093-0.557 1.727 0 3.338 0.493 4.701 1.347l-0.037-0.022c1.361 1.431 2.337 3.241 2.753 5.255l0.012 0.070 0.512 5.837c0.297 1.682 1.145 3.127 2.347 4.178l0.008 0.007c1.172 0.99 2.634 1.672 4.243 1.902l0.045 0.005c1.831-0.001 3.541-0.515 4.995-1.406l-0.042 0.024zM420.493 482.56c-2.032-2.046-3.633-4.524-4.652-7.283l-0.046-0.141c-1.343-4.579-2.279-9.907-2.614-15.396l-0.010-0.207q-1.114-11.43-1.114-18.278v-50.048q0-1.715 0.973-16.179c0.044-6.682 1.155-13.089 3.172-19.080l-0.126 0.43c1.387-2.799 3.147-5.19 5.253-7.225l0.007-0.007c1.633-1.772 3.922-2.917 6.48-3.045l0.023-0.001c0.194-0.015 0.42-0.023 0.647-0.023 2.309 0 4.415 0.874 6.004 2.309l-0.008-0.007c2.293 1.915 4.088 4.348 5.217 7.123l0.044 0.121c1.572 4.362 2.657 9.414 3.036 14.663l0.011 0.185q1.101 10.24 1.664 21.312 0.55 12.173 0.41 23.59t-0.576 25.344q-0.41 13.888-1.28 20.557c-0.63 4.916-1.698 9.354-3.187 13.594l0.141-0.461c-1.027 3.649-3.006 6.751-5.652 9.123l-0.018 0.016c-1.666 1.481-3.813 2.454-6.181 2.66l-0.040 0.003c-3.001-0.261-5.645-1.609-7.573-3.643l-0.005-0.005zM425.19 358.285c-1.501 1.496-2.645 3.35-3.29 5.423l-0.025 0.094c-0.841 2.476-1.389 5.336-1.521 8.305l-0.002 0.066q-0.282 4.749-0.55 15.795l-0.55 13.696q-0.55 9.51-0.422 17.51t0.282 13.709q0.141 5.709 0.55 16.55c0.132 5.633 0.592 11.028 1.366 16.321l-0.086-0.718c0.319 2.675 1.308 5.073 2.793 7.080l-0.028-0.040c1.029 1.288 2.6 2.107 4.362 2.107 0.168 0 0.334-0.007 0.498-0.022l-0.021 0.002c2.026-0.164 3.768-1.249 4.824-2.831l0.015-0.023c1.356-1.995 2.289-4.383 2.616-6.96l0.008-0.080c0.461-2.931 0.87-5.901 1.28-8.96q0.832-12.954 0.691-33.114t-0.218-29.632l-0.538-15.987c-0.136-4.726-0.782-9.234-1.884-13.56l0.092 0.427c-0.448-2.063-1.532-3.823-3.034-5.11l-0.012-0.010c-0.598-0.443-1.282-0.827-2.012-1.118l-0.061-0.022c-0.471-0.153-1.014-0.241-1.577-0.241-1.366 0-2.611 0.519-3.547 1.371l0.004-0.004zM515.84 391.040c-1.322 1.759-3.253 3-5.475 3.409l-0.054 0.008c-0.191 0.008-0.416 0.012-0.642 0.012-3.363 0-6.494-0.998-9.111-2.714l0.063 0.039-5.53-3.84c-1.499-1.419-3.527-2.291-5.759-2.291-0.018 0-0.036 0-0.055 0h0.003c-1.941 0.022-3.671 0.903-4.83 2.281l-0.008 0.010c-1.54 1.988-2.508 4.486-2.623 7.206l-0.001 0.026c-0.206 1.076-0.324 2.313-0.324 3.577 0 0.95 0.067 1.885 0.195 2.8l-0.012-0.105c0.319 2.616 1.055 4.994 2.143 7.165l-0.057-0.125c0.757 1.746 1.684 3.252 2.792 4.603l-0.027-0.034q4.698 4.186 5.67 1.715c0.71-1.932 1.246-4.185 1.511-6.52l0.012-0.136c0.16-2.475 1.363-4.64 3.17-6.080l0.017-0.013c1.354-1.044 2.903-1.939 4.565-2.615l0.133-0.048c1.354-0.489 2.917-0.771 4.546-0.771 0.103 0 0.205 0.001 0.308 0.003h-0.015c0.387-0.043 0.836-0.068 1.291-0.068 1.946 0 3.787 0.45 5.425 1.252l-0.073-0.032c5.572 2.125 9.459 7.425 9.459 13.633 0 0.428-0.018 0.851-0.055 1.27l0.004-0.054c0.027 0.577 0.043 1.254 0.043 1.934 0 2.815-0.267 5.567-0.778 8.233l0.043-0.272c-0.82 4.319-2.414 8.155-4.643 11.536l0.073-0.118c-2.238 3.635-5.16 6.634-8.61 8.894l-0.107 0.066c-2.153 1.487-4.613 2.827-7.212 3.898l-0.263 0.096c-1.458 0.469-3.277 0.913-5.136 1.241l-0.266 0.039c-2.035 0.384-4.058 0.691-6.080 0.947-0.115 0.002-0.25 0.003-0.386 0.003-2.473 0-4.866-0.347-7.131-0.995l0.183 0.045c-2.125-0.64-4.058-1.28-5.811-1.907-2.444-0.998-4.553-2.215-6.469-3.673l0.069 0.050c-2.634-1.928-4.877-4.191-6.723-6.759l-0.061-0.089c-1.62-2.169-3.266-4.656-4.772-7.233l-0.207-0.383c-1.22-2.121-2.302-4.579-3.114-7.156l-0.073-0.268c-0.8-2.501-1.568-5.643-2.143-8.851l-0.071-0.48c-0.435-1.949-0.78-4.295-0.962-6.686l-0.011-0.175v-16.742c0.062-3.665 0.563-7.185 1.451-10.547l-0.069 0.307c0.953-4.030 1.999-7.398 3.241-10.67l-0.194 0.583c1.193-3.124 2.636-5.822 4.369-8.302l-0.081 0.123c1.893-2.704 3.938-5.071 6.2-7.212l0.021-0.020c2.384-2.259 5.177-4.116 8.251-5.446l0.184-0.071c2.468-1.201 5.354-1.961 8.401-2.098l0.047-0.002c0.9-0.18 1.934-0.283 2.992-0.283 0.601 0 1.194 0.033 1.777 0.098l-0.072-0.006c2.394 0.128 5.21 0.448 8.435 0.947 3.101 0.439 5.901 1.374 8.444 2.729l-0.137-0.067c2.501 1.418 4.643 3.12 6.487 5.103l0.015 0.017c2.071 2.238 3.83 4.807 5.18 7.609l0.081 0.186c1.778 3.593 2.818 7.823 2.818 12.296 0 0.529-0.015 1.054-0.043 1.575l0.003-0.073q-0.55 6.080-0.832 8.371c-0.733 2.323-1.757 4.345-3.053 6.159l0.045-0.066zM480.154 356.403c-2.871 0.823-5.366 2.141-7.516 3.872l0.041-0.032c-2.455 1.722-4.52 3.807-6.167 6.203l-0.053 0.082c-1.405 2.195-2.79 4.757-3.991 7.42l-0.156 0.388c-1.289 2.749-2.3 5.942-2.874 9.285l-0.032 0.225c-0.532 3.231-0.835 6.954-0.835 10.749 0 0.235 0.001 0.47 0.003 0.705v-0.036q-0.282 4.557-0.141 8.96c0.207 3.814 0.801 7.393 1.748 10.826l-0.084-0.356c0.983 4.076 2.265 7.629 3.88 10.991l-0.142-0.329c1.754 3.452 3.925 6.408 6.5 8.957l0.003 0.003c2.57 2.696 5.649 4.881 9.086 6.405l0.182 0.072c2.865 1.001 6.169 1.58 9.607 1.58 1.492 0 2.959-0.109 4.393-0.319l-0.163 0.020c4.038-0.353 7.749-1.435 11.109-3.114l-0.178 0.080c2.863-1.535 5.23-3.652 7.010-6.207l0.043-0.065c1.826-2.671 3.253-5.785 4.104-9.129l0.044-0.202c0.484-1.619 0.763-3.48 0.763-5.406 0-1.528-0.175-3.014-0.507-4.441l0.026 0.132c-0.816-2.54-2.308-4.672-4.263-6.253l-0.025-0.019c-1.433-1.351-3.37-2.181-5.5-2.181-0.403 0-0.8 0.030-1.187 0.087l0.044-0.005c-2.18 0.276-3.98 1.671-4.823 3.583l-0.015 0.039c-0.66 1.334-1.046 2.904-1.046 4.564 0 0.471 0.031 0.935 0.091 1.39l-0.006-0.053q0.422 2.854 0.41 3.226c-0.392 1.476-1.059 2.761-1.948 3.859l0.015-0.019c-1.178 1.332-2.892 2.167-4.8 2.167-0.357 0-0.707-0.029-1.048-0.085l0.037 0.005c-2.645-0.066-5.113-0.764-7.277-1.949l0.083 0.042c-2.11-1.23-3.804-2.968-4.945-5.052l-0.034-0.068c-2.89-4.926-4.597-10.85-4.597-17.172 0-0.587 0.015-1.171 0.044-1.751l-0.003 0.082c-0.041-0.62-0.065-1.344-0.065-2.074 0-4.974 1.094-9.692 3.056-13.927l-0.085 0.205c1.415-2.664 3.738-4.688 6.547-5.683l0.083-0.026c0.957-0.287 2.056-0.452 3.195-0.452 3.050 0 5.823 1.185 7.884 3.12l-0.006-0.006 7.194 5.709c1.595 1.269 3.592 2.098 5.773 2.276l0.038 0.003c1.877-0.538 3.372-1.861 4.131-3.581l0.016-0.041c0.701-1.616 1.108-3.498 1.108-5.475 0-0.687-0.049-1.363-0.144-2.024l0.009 0.076c-0.285-3.182-1.223-6.092-2.68-8.67l0.056 0.107c-1.652-2.881-3.68-5.333-6.058-7.394l-0.035-0.030c-2.060-1.973-4.627-3.431-7.486-4.16l-0.117-0.025c-1.869-0.331-4.022-0.52-6.218-0.52-1.173 0-2.333 0.054-3.478 0.159l0.147-0.011c-0.246-0.006-0.536-0.010-0.827-0.010-2.471 0-4.882 0.255-7.209 0.741l0.228-0.040zM555.827 389.683c0.903-2.938 2.324-5.479 4.172-7.646l-0.025 0.030c1.944-2.448 4.92-4.004 8.259-4.004 0.161 0 0.321 0.004 0.48 0.011l-0.023-0.001c0.134-0.006 0.291-0.009 0.449-0.009 3.839 0 7.203 2.034 9.074 5.083l0.026 0.046c2.538 3.418 4.085 7.705 4.147 12.35v0.015c0.039 0.671 0.061 1.456 0.061 2.246 0 2.774-0.274 5.483-0.796 8.103l0.044-0.263c-0.546 2.168-1.404 4.072-2.538 5.777l0.042-0.068c-1.103 1.641-2.437 3.027-3.973 4.153l-0.046 0.032c-1.672 1.168-3.709 1.929-5.911 2.097l-0.041 0.002c-0.219 0.015-0.474 0.024-0.731 0.024-3.592 0-6.783-1.717-8.798-4.374l-0.020-0.027c-1.803-2.322-3.223-5.047-4.103-8.005l-0.045-0.175c-0.474-1.702-0.747-3.656-0.747-5.675 0-0.548 0.020-1.091 0.060-1.629l-0.004 0.072c-0.002-0.141-0.004-0.307-0.004-0.474 0-2.723 0.347-5.365 0.999-7.885l-0.048 0.218zM540.16 435.584c-1.418-2.059-2.802-4.428-4.012-6.898l-0.148-0.334c-1.281-2.415-2.539-5.306-3.585-8.297l-0.139-0.458c-0.803-2.407-1.437-5.241-1.785-8.163l-0.020-0.208c-0.667-4.378-1.066-9.455-1.101-14.618v-0.038c0-0.089-0.001-0.194-0.001-0.299 0-7.869 1.37-15.419 3.883-22.423l-0.145 0.463q1.523-4.198 3.046-7.424c1.381-2.758 2.944-5.135 4.747-7.306l-0.050 0.062c2.104-2.634 4.52-4.896 7.223-6.775l0.111-0.073c1.914-1.391 4.089-2.719 6.37-3.869l0.273-0.125c1.343-0.642 3.078-1.347 4.853-1.966l0.395-0.12c1.562-0.581 3.366-0.93 5.248-0.96h0.013c0.708-0.049 1.535-0.076 2.368-0.076 2.44 0 4.825 0.237 7.132 0.69l-0.233-0.038c4.674 0.883 8.818 2.673 12.416 5.188l-0.103-0.068c4.125 2.695 7.608 5.982 10.432 9.787l0.076 0.108c2.589 3.504 4.783 7.525 6.391 11.833l0.111 0.34c1.369 3.549 2.48 7.717 3.144 12.033l0.044 0.344q0.819 5.901 1.101 11.61c0 0.081 0 0.177 0 0.273 0 4-0.303 7.93-0.886 11.767l0.054-0.43c-0.583 3.912-1.404 7.367-2.485 10.705l0.13-0.465c-1.119 3.518-2.338 6.484-3.764 9.328l0.167-0.368c-1.802 3.502-3.684 6.493-5.791 9.308l0.121-0.168c-2.614 3.465-5.892 6.284-9.66 8.307l-0.157 0.077c-3.796 2.142-8.214 3.737-12.904 4.536l-0.242 0.034c-1.037 0.122-2.238 0.191-3.456 0.191s-2.419-0.069-3.6-0.204l0.144 0.013c-2.416-0.342-4.521-0.789-6.572-1.364l0.351 0.084c-5.645-1.693-10.512-4.507-14.556-8.205l0.028 0.026c-1.822-1.622-3.456-3.377-4.913-5.274l-0.066-0.090zM563.533 356.787c-3.531 0.324-6.736 1.488-9.487 3.287l0.079-0.049c-6.272 3.935-11.029 9.785-13.497 16.72l-0.071 0.227c-1.342 3.64-2.363 7.888-2.88 12.291l-0.025 0.266c-0.665 3.164-1.046 6.799-1.046 10.524 0 0.985 0.027 1.964 0.079 2.936l-0.006-0.135c0.445 4.773 1.423 9.165 2.884 13.33l-0.119-0.389c1.516 4.785 3.583 8.948 6.183 12.715l-0.103-0.158c2.808 3.818 6.317 6.946 10.359 9.246l0.163 0.085c3.182 2.083 7.079 3.323 11.266 3.323 0.657 0 1.307-0.031 1.949-0.090l-0.082 0.006c1.213-0.594 2.639-0.944 4.146-0.947h0.001c2.049-0.203 3.925-0.605 5.718-1.193l-0.188 0.053c1.973-0.98 3.65-1.993 5.236-3.125l-0.116 0.078c2.743-1.92 5.043-4.258 6.865-6.947l0.060-0.093c1.884-2.637 3.555-5.646 4.87-8.839l0.109-0.3c1.088-2.662 1.998-5.795 2.581-9.041l0.043-0.29c0.512-2.764 0.909-6.101 1.103-9.492l0.010-0.223c0-3.546-0.141-6.797-0.41-9.702-0.481-3.988-1.308-7.596-2.468-11.051l0.113 0.388c-1.095-3.839-2.701-7.194-4.773-10.202l0.075 0.116c-1.796-2.478-3.704-4.658-5.792-6.651l-0.019-0.018c-1.965-1.841-4.249-3.371-6.756-4.494l-0.156-0.062c-2.512-1.117-5.428-1.867-8.489-2.094l-0.087-0.005c-1.098-0.119-2.371-0.187-3.661-0.187s-2.563 0.068-3.817 0.2l0.156-0.013zM641.971 447.386l-4.71 4.186c-2.081 1.022-4.496 1.814-7.031 2.255l-0.162 0.023c-0.177 0.009-0.385 0.014-0.594 0.014-2.217 0-4.302-0.569-6.115-1.57l0.065 0.033c-1.903-1.351-3.347-3.237-4.123-5.438l-0.024-0.079c-1.185-2.938-2.147-6.383-2.727-9.955l-0.038-0.285c-0.724-4.838-1.138-10.422-1.138-16.102 0-0.828 0.009-1.655 0.026-2.479l-0.002 0.123-0.269-20.557q0-14.835 0.141-21.888c0.111-4.994 0.572-9.788 1.361-14.472l-0.081 0.584c0.538-4.171 2.012-7.917 4.204-11.135l-0.057 0.088c1.953-2.69 5.048-4.448 8.559-4.556h0.017c0.5-0.101 1.075-0.158 1.664-0.158 2.644 0 5.016 1.162 6.635 3.003l0.009 0.010c1.965 2.019 3.448 4.516 4.257 7.3l0.031 0.124c0.713 2.949 1.254 6.448 1.511 10.026l0.012 0.214q0.832 12.928 0.832 17.126l-0.55 18.662c-0.010 0.122-0.016 0.264-0.016 0.407 0 1.385 0.531 2.646 1.401 3.59l-0.003-0.004q1.382 1.28 2.906-0.576c0.839-1.647 1.331-3.592 1.331-5.652 0-0.826-0.079-1.633-0.23-2.414l0.013 0.080q-0.422-6.106-0.55-12.941t0.41-14.464c0.202-4.281 0.899-8.317 2.037-12.162l-0.092 0.361c1.009-2.987 2.417-5.577 4.192-7.869l-0.045 0.061c1.741-2.304 4.415-3.823 7.449-3.992l0.026-0.001c0.741-0.265 1.596-0.418 2.486-0.418 2.324 0 4.404 1.043 5.799 2.686l0.009 0.011c1.61 2.212 2.811 4.833 3.431 7.671l0.025 0.137q0.96 4.378 1.805 9.318c0.677 5.611 1.063 12.109 1.063 18.696 0 0.096 0 0.192 0 0.288v-0.015l-0.282 16.371c0 0.045-0.001 0.099-0.001 0.152 0 1.441 0.206 2.834 0.59 4.151l-0.026-0.105c0.144 0.946 0.651 1.752 1.373 2.285l0.009 0.007c0.922 0.243 1.754-0.563 2.496-2.483 0.555-1.323 0.878-2.861 0.878-4.474 0-0.367-0.017-0.73-0.049-1.089l0.003 0.046q-0.282-2.662-0.269-13.696l-0.55-17.92c-0.001-0.099-0.002-0.216-0.002-0.333 0-3.124 0.402-6.154 1.157-9.041l-0.055 0.248c0.612-2.525 1.518-4.748 2.702-6.79l-0.065 0.121c1.040-1.663 2.437-3.011 4.091-3.964l0.056-0.030c1.707-0.961 3.747-1.527 5.919-1.527 0.106 0 0.212 0.001 0.317 0.004h-0.016c0.381-0.066 0.82-0.103 1.267-0.103 2.017 0 3.855 0.763 5.242 2.017l-0.007-0.006c1.854 2.017 3.316 4.428 4.244 7.088l0.044 0.144c1.572 4.778 2.613 10.304 2.9 16.028l0.006 0.151q0.973 11.213 1.28 24.55 0 10.65-0.691 19.034c-0.436 5.581-1.176 10.654-2.224 15.612l0.138-0.777c-0.71 3.857-2.048 7.295-3.916 10.376l0.076-0.136c-1.408 2.253-3.16 4.148-5.206 5.67l-0.055 0.039c-1.943 1.304-4.197 2.347-6.61 3.009l-0.162 0.038c-1.971 0.614-4.355 1.146-6.798 1.493l-0.255 0.030c-0.090 0.002-0.197 0.002-0.304 0.002-3.917 0-7.552-1.212-10.549-3.281l0.062 0.041c-1.491-1.4-3.369-2.406-5.455-2.841l-0.074-0.013c-1.837 0.425-3.455 1.146-4.889 2.119l0.051-0.032c-1.59 0.995-3.424 1.835-5.365 2.427l-0.164 0.043c-1.203 0.256-2.714 0.512-4.57 0.755-0.248 0.011-0.538 0.017-0.83 0.017-1.983 0-3.901-0.282-5.715-0.808l0.145 0.036-4.979-2.662zM692.48 357.12c-1.767 0.729-3.116 2.166-3.712 3.948l-0.013 0.046c-0.772 2.144-1.218 4.619-1.218 7.197 0 0.751 0.038 1.494 0.112 2.226l-0.008-0.092 1.114 22.080 0.269 11.802c0.033 0.472 0.051 1.024 0.051 1.58 0 2.49-0.374 4.893-1.070 7.156l0.046-0.172c-0.758 1.515-1.89 2.745-3.277 3.601l-0.038 0.022c-1.53 0.959-3.389 1.527-5.38 1.527-0.102 0-0.204-0.001-0.305-0.004h0.015c-1.749-0.197-3.309-0.884-4.572-1.919l0.015 0.012c-1.112-0.916-2.004-2.058-2.612-3.359l-0.025-0.059c-0.726-2.177-1.144-4.682-1.144-7.286 0-1.041 0.067-2.067 0.197-3.073l-0.013 0.119q0.422-7.245 0.41-16.755-0.282-7.232-0.41-11.994c-0.064-3.004-0.364-5.891-0.883-8.702l0.051 0.331c-0.422-2.356-1.194-4.461-2.267-6.374l0.052 0.102c-0.716-1.549-2.238-2.615-4.013-2.662h-0.006c-0.081-0.005-0.176-0.007-0.271-0.007-1.91 0-3.57 1.070-4.414 2.643l-0.013 0.027c-1.553 2.262-2.634 4.968-3.035 7.89l-0.011 0.097c-0.529 3.042-0.832 6.545-0.832 10.119 0 0.043 0 0.085 0 0.128v-0.007c-0.18 2.42-0.282 5.243-0.282 8.090s0.103 5.669 0.304 8.464l-0.022-0.375c0.218 2.687 0.342 5.817 0.342 8.976 0 1.462-0.027 2.918-0.079 4.367l0.006-0.209c-0.133 2.118-0.734 4.070-1.699 5.79l0.035-0.068c-0.88 1.133-1.931 2.082-3.124 2.825l-0.050 0.029c-1.306 0.806-2.888 1.284-4.582 1.284-0.090 0-0.18-0.001-0.27-0.004h0.013c-2.357-0.023-4.472-1.042-5.946-2.656l-0.006-0.006c-1.169-1.486-1.999-3.293-2.345-5.266l-0.010-0.072c-0.215-1.586-0.337-3.42-0.337-5.282 0-1.421 0.071-2.826 0.211-4.21l-0.014 0.174q0.422-6.285 0.55-14.656c0.020-0.855 0.031-1.862 0.031-2.872 0-4.352-0.211-8.655-0.624-12.899l0.042 0.539c-0.178-3.546-0.976-6.86-2.286-9.901l0.071 0.186c-0.658-1.626-2.189-2.77-3.996-2.854h-0.010c-0.076-0.004-0.166-0.007-0.256-0.007-1.914 0-3.578 1.069-4.428 2.642l-0.013 0.027c-1.391 1.866-2.369 4.12-2.754 6.571l-0.011 0.085c-0.454 3.409-0.754 7.43-0.83 11.506l-0.002 0.103-0.55 9.894q-0.563 7.232-0.41 17.318t0.55 15.603q0.422 5.517 1.382 11.61c0.244 2.973 1.14 5.692 2.544 8.076l-0.048-0.089c1.017 1.252 2.383 2.183 3.95 2.648l0.057 0.014c0.595 0.179 1.279 0.283 1.988 0.283 2.281 0 4.311-1.071 5.616-2.737l0.012-0.016c1.047-1.345 2.181-2.531 3.423-3.595l0.033-0.028c1.493 0.151 2.818 0.776 3.845 1.72l-0.005-0.004c2.212 1.373 4.855 2.266 7.689 2.467l0.055 0.003c0.156 0.005 0.339 0.009 0.522 0.009 1.739 0 3.413-0.279 4.979-0.796l-0.112 0.032c1.584-0.611 2.953-1.378 4.191-2.31l-0.044 0.032q2.074-1.523 3.456-2.662c0.468-0.466 1.019-0.849 1.629-1.125l0.035-0.014c0.179-0.256 0.691 0 1.523 0.947 1.257 1.212 2.663 2.283 4.183 3.181l0.105 0.057 1.664 1.139c2.325 1.225 5.080 1.944 8.004 1.944 0.4 0 0.796-0.013 1.189-0.040l-0.053 0.003c2.887-0.165 5.574-0.851 8.026-1.964l-0.141 0.057c2.191-1.086 3.973-2.712 5.217-4.708l0.031-0.054c1.341-2.080 2.468-4.478 3.259-7.023l0.056-0.209c0.816-2.58 1.452-5.62 1.787-8.75l0.018-0.21q0.55-4.954 0.832-11.418v-12.186l-0.55-19.686c0.035-0.556 0.055-1.205 0.055-1.859 0-4.34-0.881-8.475-2.475-12.234l0.077 0.206c-0.966-1.765-2.443-3.147-4.231-3.97l-0.057-0.023c-0.562-0.252-1.218-0.399-1.908-0.399-0.656 0-1.28 0.132-1.849 0.372l0.031-0.012zM751.27 420.685c-2.129-1.101-3.891-2.641-5.218-4.512l-0.030-0.045c-1.071-1.219-1.744-2.81-1.804-4.557v-0.012c0.357-1.611 1.509-2.89 3.014-3.42l0.033-0.010c1.925-0.965 4.194-1.53 6.595-1.53 0.161 0 0.322 0.003 0.481 0.008l-0.023-0.001c0.674-0.080 1.454-0.126 2.246-0.126 2.522 0 4.935 0.464 7.16 1.311l-0.138-0.046c1.754 0.509 3.144 1.765 3.826 3.392l0.014 0.039c0.001 0.046 0.002 0.101 0.002 0.155 0 1.942-0.794 3.699-2.075 4.964l-0.001 0.001c-1.415 1.925-3.167 3.513-5.18 4.705l-0.080 0.044c-1.261 0.814-2.767 1.36-4.387 1.52l-0.041 0.003c-1.713-0.558-3.17-1.182-4.558-1.918l0.154 0.075zM717.094 386.624q0.422-3.994 1.28-8.563c0.567-3.157 1.432-5.965 2.591-8.616l-0.095 0.245c1.428-3.178 2.907-5.862 4.572-8.413l-0.143 0.234c1.419-2.4 3.069-4.466 4.967-6.274l0.012-0.011c1.83-1.529 3.858-3.033 5.973-4.417l0.248-0.153c2.227-1.557 4.791-2.859 7.531-3.778l0.213-0.062c2.815-0.737 6.046-1.16 9.376-1.16 0.448 0 0.894 0.008 1.338 0.023l-0.065-0.002c0.776-0.060 1.68-0.094 2.593-0.094 4.431 0 8.674 0.804 12.592 2.274l-0.247-0.081c3.86 1.514 7.168 3.643 9.972 6.298l-0.014-0.013c2.352 2.244 4.3 4.887 5.739 7.825l0.072 0.162c1.289 2.799 2.427 6.099 3.241 9.524l0.074 0.37c0.31 1.244 0.488 2.673 0.488 4.143 0 0.955-0.075 1.892-0.22 2.806l0.013-0.101-1.664 4.954c-0.092 0.344-0.146 0.738-0.146 1.146s0.053 0.802 0.153 1.178l-0.007-0.032c0.608 1.159 1.297 2.158 2.089 3.065l-0.016-0.018c1.064 1.318 1.989 2.817 2.713 4.427l0.052 0.129c0.812 2.489 1.28 5.353 1.28 8.327 0 0.020 0 0.040 0 0.060v-0.003c0.010 0.388 0.016 0.844 0.016 1.302 0 6.28-1.070 12.311-3.037 17.919l0.116-0.379c-1.803 5.013-4.139 9.355-7.014 13.278l0.102-0.145c-2.293 3.128-4.791 5.87-7.55 8.325l-0.053 0.046c-5.877 4.599-13.182 7.632-21.154 8.36l-0.158 0.012c-0.007 0-0.014 0-0.022 0-3.185 0-6.262-0.468-9.164-1.338l0.225 0.058c-2.999-0.847-5.621-2.081-7.983-3.672l0.098 0.062c-2.57-1.834-4.829-3.772-6.903-5.892l-0.009-0.009c-1.938-1.868-3.67-3.926-5.175-6.15l-0.086-0.135c-1.027-1.623-2.089-3.557-3.039-5.555l-0.148-0.346q-1.523-3.238-2.906-7.053c-0.898-2.42-1.667-5.3-2.173-8.27l-0.041-0.293c-0.539-3.491-0.846-7.517-0.846-11.615 0-0.534 0.005-1.066 0.016-1.597l-0.001 0.080c-0.090-5.568 0.038-9.677 0.333-12.352zM778.099 387.392c1.256-0.692 2.283-1.657 3.027-2.821l0.020-0.033c0.482-1.486 0.76-3.196 0.76-4.97 0-0.53-0.025-1.055-0.073-1.573l0.005 0.066c-0.267-3.785-1.311-7.272-2.973-10.378l0.068 0.138c-1.74-3.685-4.447-6.671-7.796-8.705l-0.089-0.050c-3.982-1.963-8.668-3.111-13.623-3.111-0.706 0-1.406 0.023-2.1 0.069l0.094-0.005c-0.815-0.088-1.761-0.138-2.718-0.138-2.178 0-4.296 0.26-6.323 0.752l0.183-0.037c-3.116 1.064-5.82 2.483-8.256 4.248l0.090-0.062c-2.751 1.736-5.118 3.752-7.164 6.059l-0.030 0.034c-1.869 2.503-3.378 5.411-4.372 8.548l-0.057 0.207c-1.022 2.611-1.933 5.739-2.576 8.963l-0.061 0.368c-0.335 1.915-0.535 4.128-0.55 6.385v0.015c-0.088 1.53-0.138 3.319-0.138 5.12s0.050 3.59 0.149 5.367l-0.011-0.247c0.271 4.885 0.914 9.451 1.91 13.883l-0.105-0.558c1.080 5.049 3.253 9.475 6.266 13.191l-0.045-0.058c2.522 3.365 5.601 6.158 9.124 8.291l0.143 0.080c2.514 1.44 5.431 2.561 8.523 3.205l0.194 0.034c1.884 0.41 4.084 0.686 6.334 0.766l0.066 0.002c3.641-0.218 7.033-1.040 10.159-2.367l-0.2 0.076c2.699-1.108 5.028-2.516 7.1-4.223l-0.047 0.037c1.996-1.813 3.769-3.809 5.312-5.979l0.077-0.114c1.86-2.586 3.57-5.528 4.986-8.632l0.134-0.328c1.184-2.347 2.182-5.079 2.855-7.937l0.051-0.255c0.208-1.020 0.328-2.193 0.328-3.394 0-2.268-0.425-4.436-1.201-6.43l0.041 0.121c-1.141-2.452-2.894-4.456-5.066-5.868l-0.054-0.033c-3.543-1.801-7.725-2.856-12.154-2.856-0.106 0-0.211 0.001-0.316 0.002h0.016c-2.279-0.215-4.927-0.337-7.604-0.337-1.756 0-3.499 0.053-5.229 0.156l0.238-0.011c-0.192 0-2.125 0.243-5.811 0.755-1.011 0.243-2.172 0.383-3.365 0.383-1.464 0-2.879-0.21-4.216-0.601l0.106 0.027c-1.311-0.671-2.3-1.814-2.754-3.199l-0.011-0.039c-0.243-0.816-0.383-1.754-0.383-2.725 0-1.137 0.192-2.229 0.544-3.245l-0.021 0.069c0.61-2.382 1.56-4.474 2.811-6.346l-0.047 0.074c1.124-1.702 2.557-3.106 4.231-4.165l0.057-0.034c2.586-1.262 5.604-2.082 8.791-2.275l0.067-0.003c0.917-0.351 1.977-0.554 3.085-0.554 1.725 0 3.334 0.492 4.696 1.344l-0.037-0.022c1.361 1.431 2.337 3.241 2.753 5.255l0.012 0.070 0.55 5.709c0.301 1.681 1.148 3.126 2.347 4.179l0.008 0.007c1.173 0.989 2.635 1.67 4.242 1.902l0.046 0.005c0.098 0.004 0.213 0.006 0.329 0.006 1.708 0 3.311-0.448 4.698-1.234l-0.047 0.025z" />
<glyph unicode="&#xe920;" glyph-name="home" d="M223.754 69.12h192.84v150.231h160.174v-150.231h192.829v301.056l-273.787 254.556-272.056-267.551v-288.061zM490.097 735.212l-331.377-334.828h-102.502l433.879 426.639 477.583-426.854h-100.577z" />
<glyph unicode="&#xe921;" d="M1024 448c0-282.77-229.23-512-512-512s-512 229.23-512 512c0 282.77 229.23 512 512 512s512-229.23 512-512z" />
<glyph unicode="&#xe922;" d="M804.928 645.517c-63.244-0.221-116.604-42.288-133.851-99.949l-0.255-0.992c40.164-38.37 65.134-92.35 65.134-152.163 0-116.148-94.156-210.304-210.304-210.304s-210.304 94.156-210.304 210.304c0 54.002 20.354 103.25 53.809 140.491l-0.172-0.194c-13.287 64.608-69.571 112.544-137.098 112.806h-0.029c-5.248-0.267-10.095-0.779-14.86-1.536l0.78 0.102v71.872c4.685 0.32 9.357 0.717 14.080 0.717 89.593-0.281 165.956-56.621 195.873-135.771l0.479-1.445c28.173 15.263 61.679 24.235 97.281 24.235 31.086 0 60.574-6.84 87.042-19.098l-1.283 0.533c31.772 77.567 106.566 131.267 193.936 131.546h0.035c4.659 0 9.229-0.397 13.824-0.704v-71.872c-4.003 0.654-8.864 1.161-13.794 1.408l-0.324 0.013zM525.158 532.749c-31.415-0.032-60.364-10.565-83.533-28.276l0.333 0.244c0-0.102 0-0.192 0-0.294h-0.461c-34.273-25.782-56.205-66.376-56.205-112.092 0-77.253 62.626-139.878 139.878-139.878s139.878 62.626 139.878 139.878c0 45.716-21.931 86.31-55.847 111.834l-0.358 0.258h-13.35c0 0.102 0 0.205 0 0.294 0 2.854 0.307 5.619 0.422 8.448-20.197 12.297-44.62 19.578-70.744 19.584h-0.002z" />
<glyph unicode="&#xe923;" d="M1024 448c0-282.77-229.23-512-512-512s-512 229.23-512 512c0 282.77 229.23 512 512 512s512-229.23 512-512z" />
<glyph unicode="&#xe924;" d="M358.4 755.2v0c-56.554 0-102.4-45.846-102.4-102.4v-435.2c0-56.554 45.846-102.4 102.4-102.4h307.2c56.554 0 102.4 45.846 102.4 102.4v435.2c0 56.554-45.846 102.4-102.4 102.4h-307.2zM358.4 729.6h307.2c42.415 0 76.8-34.385 76.8-76.8v0-435.2c0-42.415-34.385-76.8-76.8-76.8v0h-307.2c-42.415 0-76.8 34.385-76.8 76.8v0 435.2c0 42.415 34.385 76.8 76.8 76.8v0zM326.4 486.4h345.6c10.604 0 19.2-8.596 19.2-19.2s-8.596-19.2-19.2-19.2v0h-345.6c-10.604 0-19.2 8.596-19.2 19.2s8.596 19.2 19.2 19.2v0zM326.4 409.6h345.6c10.604 0 19.2-8.596 19.2-19.2s-8.596-19.2-19.2-19.2v0h-345.6c-10.604 0-19.2 8.596-19.2 19.2s8.596 19.2 19.2 19.2v0zM326.4 345.6h345.6c10.604 0 19.2-8.596 19.2-19.2s-8.596-19.2-19.2-19.2v0h-345.6c-10.604 0-19.2 8.596-19.2 19.2s8.596 19.2 19.2 19.2v0zM576 742.4h102.4v-166.4l-51.2 38.4-51.2-38.4v166.4z" />
<glyph unicode="&#xe925;" d="M332.646 310.234h31.514v84.941c5.874 7.87 14.881 13.12 25.139 13.894l0.116 0.007c11.866 0 17.050-6.835 17.050-25.805v-72.96h31.731v76.915c0 31.104-11.226 49.638-37.338 49.638-15.131-0.752-28.537-7.563-37.946-18.036l-0.044-0.050 1.28 23.168v44.339h-31.501v-176.051zM521.28 307.2c30.221 0 58.061 23.821 58.061 64.64 0 41.254-27.84 65.075-58.061 65.075s-58.061-23.821-58.061-65.075c0.013-40.87 27.853-64.64 58.061-64.64zM521.28 333.67c-16.397 0-25.677 15.002-25.677 38.17 0 23.386 9.28 38.605 25.677 38.605s25.677-15.219 25.677-38.605c0.013-23.219-9.267-38.221-25.677-38.221zM644.736 307.418c7.56 0.446 14.621 2.028 21.199 4.578l-0.476-0.162-3.456 13.453c-3.996-1.713-8.631-2.822-13.492-3.080l-0.102-0.004c-14.080 0-18.342 8.819-18.342 23.386v68.992h32.154v14.784h-32.166v33.754h-14.886l-1.946-33.754-18.342-1.101v-13.683h17.702v-68.39c0-23.373 7.77-38.822 32.154-38.822z" />
<glyph unicode="&#xe926;" d="M1024 448c0-282.77-229.23-512-512-512s-512 229.23-512 512c0 282.77 229.23 512 512 512s512-229.23 512-512z" />
<glyph unicode="&#xe927;" d="M870.4 458.496c-13.722-134.771-91.11-269.594-149.069-304.794 15.962 32.333 19.059 74.65 17.139 113.434-65.086-38.874-143.557-61.857-227.396-61.857-1.925 0-3.847 0.012-5.766 0.036l0.291-0.003c-201.472 0-364.8 120.205-364.8 268.506s163.328 268.506 364.8 268.506 364.8-120.243 364.8-268.506c0-5.44-0.282-10.842-0.704-16.192zM282.56 516.403c-33.551-0.036-60.736-27.244-60.736-60.8 0-33.579 27.221-60.8 60.8-60.8s60.8 27.221 60.8 60.8v0c-0.022 33.584-27.252 60.8-60.838 60.8-0.009 0-0.018 0-0.027 0h0.001zM485.363 516.403c-0.038 0-0.083 0-0.128 0-33.579 0-60.8-27.221-60.8-60.8s27.221-60.8 60.8-60.8c33.579 0 60.8 27.221 60.8 60.8v0c0 0.019 0 0.042 0 0.064 0 33.521-27.156 60.7-60.669 60.736h-0.003zM687.987 516.403c-0.038 0-0.083 0-0.128 0-33.579 0-60.8-27.221-60.8-60.8s27.221-60.8 60.8-60.8c33.579 0 60.8 27.221 60.8 60.8v0c0 0.015 0 0.033 0 0.051 0 33.519-27.147 60.698-60.654 60.749h-0.005z" />
<glyph unicode="&#xe928;" d="M1024 448c0-282.77-229.23-512-512-512s-512 229.23-512 512c0 282.77 229.23 512 512 512s512-229.23 512-512z" />
<glyph unicode="&#xe929;" d="M903.91 364.8c-28.824-178.731-181.981-313.59-366.637-313.59-194.153 0-353.485 149.090-369.755 339.029l-0.095 1.377h15.91c24.351-136.295 141.981-238.414 283.462-238.414s259.111 102.119 283.203 236.669l0.259 1.744h5.363c-0.382 2.336-0.675 5.161-0.812 8.028l-0.007 0.177c-0.001 0.163-0.002 0.355-0.002 0.548 0 43.518 35.279 78.797 78.797 78.797s78.797-35.279 78.797-78.797c0-12.975-3.136-25.217-8.691-36.011l0.207 0.442zM777.997 520.96c-13.543 9.305-22.311 24.71-22.311 42.163 0 28.164 22.831 50.995 50.995 50.995s50.995-22.831 50.995-50.995c0-10.679-3.282-20.591-8.893-28.782l0.113 0.174c-9.373-13.524-24.814-22.269-42.296-22.269-10.668 0-20.575 3.256-28.782 8.828l0.179-0.115zM555.84 466.048h53.133q9.139-74.688 56.794-111.091v-40.077q-102.566 49.165-109.939 151.142zM577.83 493.376h-153.907v214.874h216.192v-149.338q3.648-69.235-62.298-65.562zM585.165 671.846h-106.24v-142.080h78.784q29.286-1.83 27.482 29.133v112.934zM500.877 466.022q-7.347-105.638-111.757-151.142v38.246q51.264 38.246 56.794 112.909h54.963zM350.643 314.88h-53.133v160.256c-17.256-34.164-38.024-63.541-62.454-89.423l0.17 0.181v54.643c24.724 40.34 45.35 86.912 59.473 136.23l0.982 4.007h-54.976v38.246h56.794v56.448h-53.12v38.246h82.445c0.939-0.010 2.049-0.016 3.16-0.016 26.209 0 51.64 3.325 75.897 9.577l-2.103-0.46v-40.064c-1.472-0.103-2.767-0.788-3.668-1.824l-0.006-0.006q-21.978-3.661-49.459-5.453v-56.461h53.133v-38.246h-51.302c13.553-39.611 31.554-73.976 53.933-104.972l-0.8 1.164v-50.995c-20.025 21.052-38.153 44.283-53.882 69.181l-1.081 1.833v-182.093z" />
<glyph unicode="&#xe92a;" d="M1024 448c0-282.77-229.23-512-512-512s-512 229.23-512 512c0 282.77 229.23 512 512 512s512-229.23 512-512z" />
<glyph unicode="&#xe92b;" d="M844.8 499.2h-89.83c-2.54-110.309-66.79-205.031-159.47-251.215l-1.669-0.753 58.97-58.982v3.75h64v-12.8h-64v5.030l-7.040-7.040-64.154 64.154c-25.582-11.401-55.252-19.344-86.377-22.299l-1.15-0.088 56.32-56.32v3.763h64v-12.8h-64v5.030l-7.040-7.040-66.496 66.496c-3.264-0.102-6.4-0.486-9.664-0.486-0.106 0-0.23 0-0.355 0-158.86 0-287.642 128.782-287.642 287.642 0 42.988 9.43 83.774 26.335 120.402l-0.738-1.784v-99.059h14.502c20.957-38.381 61.030-63.982 107.083-63.982 34.679 0 65.968 14.517 88.12 37.806l0.048 0.051c-3.093 11.667-4.896 25.072-4.953 38.89v0.035c1.83 92.304 77.088 166.429 169.658 166.429 1.105 0 2.207-0.011 3.307-0.032l-0.165 0.002c0.618 0.008 1.347 0.013 2.077 0.013 79.262 0 145.967-53.764 165.635-126.812l0.275-1.2h94.413l-76.8-38.4z" />
<glyph unicode="&#xe92c;" d="M1024 448c0-282.77-229.23-512-512-512s-512 229.23-512 512c0 282.77 229.23 512 512 512s512-229.23 512-512z" />
<glyph unicode="&#xe92d;" d="M739.123 423.066c-28.611-25.671-66.629-41.367-108.313-41.367-36.71 0-70.576 12.174-97.782 32.705l0.412-0.297-124.698-110.81 50.995-57.856c5.024-5.726 8.089-13.278 8.089-21.547 0-9.75-4.262-18.505-11.025-24.504l-0.034-0.030-6.118-5.44c-5.715-5.137-13.313-8.279-21.645-8.279-9.641 0-18.299 4.206-24.24 10.883l-0.029 0.033-50.995 57.856-70.298-62.464c-5.716-5.141-13.317-8.285-21.652-8.285-9.644 0-18.304 4.209-24.245 10.889l-0.029 0.033-5.363 6.093c-5.021 5.726-8.084 13.278-8.084 21.546 0 9.75 4.26 18.505 11.020 24.505l0.034 0.029 251.546 223.514c-11.019 21.457-17.477 46.817-17.477 73.685 0 48.758 21.268 92.548 55.033 122.599l0.165 0.144c28.541 25.454 66.39 41.008 107.871 41.008 89.68 0 162.381-72.7 162.381-162.381 0-48.672-21.414-92.342-55.335-122.104l-0.185-0.159zM723.443 626.355c-22.599 25.718-55.559 41.863-92.291 41.863-67.745 0-122.662-54.918-122.662-122.662s54.918-122.662 122.662-122.662c31.168 0 59.62 11.624 81.259 30.774l-0.13-0.113c25.774 22.419 41.974 55.27 41.974 91.904 0 31.118-11.689 59.507-30.916 81.014l0.103-0.118z" />
<glyph unicode="&#xe92e;" d="M1024 448c0-282.77-229.23-512-512-512s-512 229.23-512 512c0 282.77 229.23 512 512 512s512-229.23 512-512z" />
<glyph unicode="&#xe92f;" d="M358.4 512c53.914-109.274 52.8-84.8 25.6-192s70.4-224 192-153.6 247.386 381.594 64 486.4c-49.024 28.019-352.934 3.84-281.6-140.8zM332.8 729.6c28.277 0 51.2-22.923 51.2-51.2s-22.923-51.2-51.2-51.2c-28.277 0-51.2 22.923-51.2 51.2v0c0 28.277 22.923 51.2 51.2 51.2v0zM448 755.2c21.208 0 38.4-17.192 38.4-38.4s-17.192-38.4-38.4-38.4c-21.208 0-38.4 17.192-38.4 38.4v0c0 21.208 17.192 38.4 38.4 38.4v0zM550.4 755.2c21.208 0 38.4-17.192 38.4-38.4s-17.192-38.4-38.4-38.4c-21.208 0-38.4 17.192-38.4 38.4v0c0 21.208 17.192 38.4 38.4 38.4v0zM640 729.6c14.138 0 25.6-11.462 25.6-25.6s-11.462-25.6-25.6-25.6c-14.138 0-25.6 11.462-25.6 25.6v0c0 14.138 11.462 25.6 25.6 25.6v0zM716.8 678.4c14.138 0 25.6-11.462 25.6-25.6s-11.462-25.6-25.6-25.6c-14.138 0-25.6 11.462-25.6 25.6v0c0 14.138 11.462 25.6 25.6 25.6v0z" />
<glyph unicode="&#xe930;" glyph-name="member" d="M1000.11 37.12h-635.259c0 0.038 0 0.083 0 0.127 0 29.21 3.822 57.528 10.993 84.48l-0.518-2.288h-233.994c-65.072 0.474-117.64 53.335-117.64 118.474 0 0.289 0.001 0.578 0.003 0.866v-0.044 501.084c-0.002 0.247-0.003 0.54-0.003 0.832 0 65.139 52.568 118 117.595 118.474h470.604l117.617-119.306v-126.73c52.551-20.747 89.055-71.091 89.055-129.961 0-56.924-34.131-105.877-83.044-127.51l-0.89-0.351c151.828-27.451 265.488-158.604 265.488-316.304 0-0.648-0.002-1.295-0.006-1.942v0.1zM682.486 715.95l-70.595 95.478h-423.506c-64.973 0-117.637-5.693-117.637-71.578v-453.396c0-65.884 5.601-119.306 70.584-119.306h250.47c42.713 97.476 130.028 168.448 235.405 187.62l1.948 0.294c-49.734 21.961-83.815 70.848-83.815 127.695 0 75.975 60.875 137.733 136.51 139.157l0.133 0.002h0.522v94.034zM375.286 666.911h-256.174c-10.248 0-18.555 8.307-18.555 18.555s8.307 18.555 18.555 18.555h256.195c10.248 0 18.555-8.307 18.555-18.555s-8.307-18.555-18.555-18.555v0zM109.537 601.631h275.569c4.56 0 8.258-3.694 8.264-8.253v-19.846c-0.006-4.559-3.703-8.253-8.264-8.253h-275.569c-4.556 0.006-8.248 3.698-8.253 8.253v19.846c0.006 4.556 3.698 8.248 8.253 8.253h0.001zM109.691 509.348h275.251c4.649 0 8.417-3.769 8.417-8.417v0-20.255c0-4.649-3.769-8.417-8.417-8.417v0h-275.251c-4.649 0-8.417 3.769-8.417 8.417v0 20.224c0 0.009 0 0.020 0 0.031 0 4.649 3.769 8.417 8.417 8.417 0 0 0 0 0 0v0z" />
<glyph unicode="&#xe931;" d="M1024 448c0-282.77-229.23-512-512-512s-512 229.23-512 512c0 282.77 229.23 512 512 512s512-229.23 512-512z" />
<glyph unicode="&#xe932;" d="M748.8 341.171v28.851c36.776 0.523 66.387 30.458 66.387 67.309s-29.611 66.786-66.338 67.308l-0.049 0.001v28.864c52.439-0.883 94.61-43.6 94.61-96.166s-42.171-95.284-94.528-96.165l-0.083-0.001zM710.4 488.794c-0.461-0.474-1.024-0.845-1.472-1.28-0.016 0.67-0.026 1.459-0.026 2.25 0 6.049 0.545 11.97 1.588 17.718l-0.091-0.602v-18.048zM624.051 163.341c-15.014 8.653-239.36 146.048-354.88 216.32-7.607-16.681-24.128-28.072-43.312-28.096h-0.003c-26.283 0-47.59 21.307-47.59 47.59v0 96.256c0 26.283 21.307 47.59 47.59 47.59v0 0c19.344-0.014 35.984-11.577 43.399-28.165l0.121-0.302c113.459 69.338 334.17 204.467 355.674 216.486 4.61 2.802 10.183 4.46 16.144 4.46 17.369 0 31.45-14.080 31.45-31.45 0-0.164-0.001-0.328-0.004-0.491v0.025-512.589c0.009-0.275 0.013-0.599 0.013-0.923 0-17.475-14.166-31.642-31.642-31.642-6.294 0-12.158 1.837-17.086 5.005l0.126-0.076zM710.4 367.834c-0.953 5.144-1.498 11.062-1.498 17.107 0 0.799 0.010 1.595 0.028 2.39l-0.002-0.118c0.448-0.499 1.011-0.858 1.472-1.28v-18.048z" />
<glyph unicode="&#xe933;" d="M1024 448c0-282.77-229.23-512-512-512s-512 229.23-512 512c0 282.77 229.23 512 512 512s512-229.23 512-512z" />
<glyph unicode="&#xe934;" d="M371.2 755.2v0c-70.692 0-128-57.308-128-128v-358.4c0-70.692 57.308-128 128-128h281.6c70.692 0 128 57.308 128 128v358.4c0 70.692-57.308 128-128 128h-281.6zM691.2 732.16c0-84.826-80.23-153.6-179.2-153.6s-179.2 68.774-179.2 153.6zM382.080 709.12c0-59.379 58.163-107.52 129.92-107.52s129.92 48.141 129.92 107.52zM496.973 278.144v54.118h-72.96v15.36h72.96v23.258h-72.96v15.36h63.808l-89.101 117.555h35.2l45.094-64.755c12.838-19.2 20.186-29.837 32.269-48.090h1.843c12.838 18.227 19.802 29.235 32.269 48.090l45.094 64.73h34.47l-88.742-117.555h63.437v-15.36h-72.602v-23.296h72.602v-15.36h-72.602v-54.054h-30.067z" />
<glyph unicode="&#xe935;" glyph-name="setting" d="M879.841 394.803h-110.060c-7.22-35.565-20.526-67.080-38.9-94.958l0.623 1.006 77.752-78.848c4.756-4.85 7.692-11.5 7.692-18.836s-2.935-13.986-7.696-18.841l0.004 0.004-37.161-37.693c-4.726-4.815-11.302-7.799-18.575-7.799s-13.85 2.984-18.571 7.795l-0.004 0.004-77.568 78.664c-26.466-18.151-57.594-31.764-91.121-38.887l-1.694-0.301v-111.043c0-0.049 0.001-0.107 0.001-0.164 0-14.549-11.742-26.355-26.266-26.459h-52.562c-14.534 0.104-26.276 11.911-26.276 26.46 0 0.058 0 0.116 0.001 0.173v-0.009 111.043c-35.175 7.478-66.25 21.121-93.552 39.861l0.88-0.571-77.722-78.848c-4.726-4.815-11.302-7.799-18.575-7.799s-13.85 2.984-18.571 7.795l-0.004 0.004-37.151 37.693c-4.759 4.849-7.696 11.5-7.696 18.836s2.937 13.988 7.7 18.841l-0.004-0.004 77.998 79.094c-17.674 26.807-30.928 58.237-37.838 91.979l-0.295 1.727h-110.449c-14.53 0.11-26.266 11.914-26.266 26.459 0 0.058 0 0.116 0.001 0.173v-0.009 53.248c0 0.049-0.001 0.107-0.001 0.165 0 14.545 11.736 26.349 26.256 26.459h110.51c7.248 35.421 20.524 66.799 38.828 94.569l-0.623-1.006-78.131 79.237c-4.759 4.851-7.697 11.503-7.697 18.842s2.937 13.991 7.701 18.846l-0.004-0.004 37.151 37.683c4.726 4.815 11.302 7.799 18.575 7.799s13.85-2.984 18.571-7.795l0.004-0.004 77.957-78.92c26.363 18.094 57.361 31.686 90.747 38.842l1.7 0.305v111.503c0 0.049-0.001 0.107-0.001 0.164 0 14.549 11.742 26.355 26.266 26.459h52.562c14.534-0.104 26.276-11.911 26.276-26.46 0-0.058 0-0.116-0.001-0.173v0.009-111.411c35.133-7.415 66.183-20.983 93.48-39.64l-0.89 0.574 77.824 78.848c4.726 4.815 11.302 7.799 18.575 7.799s13.85-2.984 18.571-7.795l0.004-0.004 37.161-37.683c4.754-4.853 7.688-11.504 7.688-18.842s-2.934-13.989-7.693-18.846l0.004 0.005-77.896-78.991c17.762-26.826 31.092-58.284 38.060-92.067l0.299-1.732h110.090c14.534-0.104 26.276-11.911 26.276-26.46 0-0.058 0-0.116-0.001-0.173v0.009-53.248c0-0.058 0.001-0.127 0.001-0.195 0-14.549-11.742-26.355-26.267-26.459h-0.010zM512.553 647.936c-0.92 0.015-2.005 0.024-3.092 0.024-110.473 0-200.028-89.556-200.028-200.028s89.556-200.028 200.028-200.028c110.464 0 200.015 89.542 200.028 200.003v0.001c0.004 0.461 0.006 1.006 0.006 1.552 0 109.077-87.988 197.603-196.859 198.475l-0.083 0.001z" />
<glyph unicode="&#xe936;" d="M1024 448c0-282.77-229.23-512-512-512s-512 229.23-512 512c0 282.77 229.23 512 512 512s512-229.23 512-512z" />
<glyph unicode="&#xe937;" d="M762.765 145.92h-512.525c-47.235 0.254-85.428 38.604-85.428 85.874 0 0.153 0 0.307 0.001 0.46v-0.024 345.203c-0.001 0.13-0.001 0.283-0.001 0.436 0 47.268 38.195 85.615 85.405 85.861h85.45v-73.344c0-0.046 0-0.1 0-0.154 0-16.54 13.361-29.96 29.879-30.054h8.547c16.533 0.087 29.901 13.509 29.901 30.054 0 0.054 0 0.108 0 0.162v-0.008 73.344h205.018v-73.344c0-0.046 0-0.1 0-0.154 0-16.545 13.369-29.967 29.893-30.054h8.546c16.533 0.087 29.901 13.509 29.901 30.054 0 0.054 0 0.108 0 0.162v-0.008 73.344h85.414c47.233-0.246 85.428-38.593 85.428-85.861 0-0.153 0-0.307-0.001-0.46v0.024-345.203c0.001-0.13 0.001-0.283 0.001-0.436 0-47.27-38.193-85.62-85.404-85.874h-0.024zM483.725 443.213h-219.546c-9.157-0.26-16.481-7.745-16.481-16.941s7.324-16.681 16.458-16.94l0.024-0.001h219.584c9.157 0.26 16.481 7.745 16.481 16.941s-7.324 16.681-16.458 16.94l-0.024 0.001zM483.725 356.902h-219.546c-9.157-0.26-16.481-7.745-16.481-16.941s7.324-16.681 16.458-16.94l0.024-0.001h219.584c9.157 0.26 16.481 7.745 16.481 16.941s-7.324 16.681-16.458 16.94l-0.024 0.001zM483.725 270.605h-219.546c-9.157-0.26-16.481-7.745-16.481-16.941s7.324-16.681 16.458-16.94l0.024-0.001h219.584c9.157 0.26 16.481 7.745 16.481 16.941s-7.324 16.681-16.458 16.94l-0.024 0.001zM775.002 503.565c-10.010 10.125-28.941 7.386-42.24-6.093l-198.298-209.024-6.042-42.688 42.24 6.106 198.336 208.934c13.338 13.478 16.038 32.602 6.029 42.714zM643.162 577.485c-9.447 0.043-17.088 7.712-17.088 17.165 0 0.032 0 0.063 0 0.095v-0.005 138.035c-0.004 0.139-0.006 0.303-0.006 0.468 0 9.437 7.651 17.088 17.088 17.088s17.088-7.651 17.088-17.088c0-0.164-0.002-0.328-0.007-0.492l0.001 0.024v-138.086c0-0.027 0-0.058 0-0.090 0-9.439-7.62-17.099-17.044-17.164h-0.006zM369.805 577.485c-9.447 0.043-17.088 7.712-17.088 17.165 0 0.032 0 0.063 0 0.095v-0.005 138.035c0 9.437 7.651 17.088 17.088 17.088s17.088-7.651 17.088-17.088v0-138.086c0-0.027 0-0.058 0-0.090 0-9.444-7.627-17.107-17.057-17.164h-0.006z" />
<glyph unicode="&#xe938;" d="M1024 448c0-282.77-229.23-512-512-512s-512 229.23-512 512c0 282.77 229.23 512 512 512s512-229.23 512-512z" />
<glyph unicode="&#xe939;" d="M862.285 74.752c-91.294-85.938-214.619-138.747-350.278-138.747s-258.984 52.809-350.539 138.991l0.261-0.243c28.354 129.428 123.612 231.243 246.893 268.499l2.541 0.66h-94.72c-0.076 0-0.166-0.001-0.257-0.001-34.917 0-63.24 28.233-63.385 63.116v252.75c0.116 34.912 28.445 63.168 63.372 63.168 0.077 0 0.153 0 0.23 0h381.53c0.061 0 0.133 0 0.205 0 34.931 0 63.262-28.255 63.385-63.157v-252.748c-0.124-34.913-28.455-63.168-63.385-63.168-0.072 0-0.144 0-0.216 0h-85.083c125.817-37.905 221.078-139.704 249.008-266.743l0.439-2.377zM396.8 576c-21.208 0-38.4-17.192-38.4-38.4s17.192-38.4 38.4-38.4c21.208 0 38.4 17.192 38.4 38.4v0c0 21.208-17.192 38.4-38.4 38.4v0zM614.4 499.2c21.208 0 38.4 17.192 38.4 38.4s-17.192 38.4-38.4 38.4c-21.208 0-38.4-17.192-38.4-38.4v0c0-21.208 17.192-38.4 38.4-38.4v0z" />
<glyph unicode="&#xe93a;" d="M1006.933 448c0-263.918-213.948-477.867-477.867-477.867s-477.867 213.948-477.867 477.867c0 263.918 213.948 477.867 477.867 477.867s477.867-213.948 477.867-477.867z" />
<glyph unicode="&#xe93b;" d="M549.274 114.295c-0.433-0.002-0.945-0.003-1.458-0.003-176.675 0-319.898 143.223-319.898 319.898 0 138.944 88.582 257.199 212.352 301.37l2.235 0.696v-116.719c-64.268-37.67-106.742-106.401-106.742-185.051 0-118.066 95.711-213.777 213.777-213.777s213.777 95.711 213.777 213.777c0 78.867-42.708 147.759-106.258 184.811l-1.016 0.547v116.412c126.005-44.868 214.586-163.122 214.586-302.066 0-176.675-143.223-319.898-319.898-319.898-0.513 0-1.025 0.001-1.537 0.004h0.079zM580.267 535.381h-61.44c-12.63 0-22.869 10.239-22.869 22.869v0 274.739c0 0.010 0 0.022 0 0.034 0 12.63 10.239 22.869 22.869 22.869 0 0 0 0 0 0h61.44c12.63 0 22.869-10.239 22.869-22.869v0-274.773c0-12.63-10.239-22.869-22.869-22.869v0z" />
<glyph unicode="&#xe93c;" glyph-name="user" d="M512.358 842.076c0.478 0.005 1.042 0.007 1.608 0.007 98.296 0 177.981-79.685 177.981-177.981s-79.685-177.981-177.981-177.981c-98.294 0-177.977 79.681-177.981 177.974v0.001c-0.001 0.247-0.002 0.539-0.002 0.831 0 97.565 78.872 176.709 176.334 177.15h0.042zM100.188 53.944c-1.229 236.964 200.417 376.484 200.417 376.484l226.591-202.752 184.32 204.8s212.214-121.62 212.214-378.532zM522.076 432.476c14.141 0 25.6-27.505 25.6-61.44s-11.459-61.44-25.6-61.44-25.6 27.505-25.6 61.44 11.459 61.44 25.6 61.44z" />
<glyph unicode="&#xe93d;" d="M1024 448c0-282.77-229.23-512-512-512s-512 229.23-512 512c0 282.77 229.23 512 512 512s512-229.23 512-512z" />
<glyph unicode="&#xe93e;" d="M782.080 320c31.28-46.844 49.917-104.445 49.92-166.399v-0.001h-627.2c1.587 170.467 140.145 308.044 310.835 308.044 0.972 0 1.943-0.004 2.913-0.013l-0.148 0.001c0.249 0.001 0.544 0.001 0.839 0.001 86.133 0 164.203-34.519 221.132-90.477l-0.045 0.044h-151.526v19.84c0.001 0.047 0.002 0.102 0.002 0.158 0 3.103-2.516 5.619-5.619 5.619-1.117 0-2.158-0.326-3.033-0.888l0.022 0.013c-3.443-1.971-72.115-41.971-77.99-45.389-1.724-0.995-2.865-2.828-2.865-4.928s1.142-3.933 2.838-4.913l0.027-0.015c4.224-2.56 73.165-42.701 78.157-45.504 0.822-0.503 1.816-0.801 2.881-0.801 3.082 0 5.581 2.499 5.581 5.581 0 0.030 0 0.059-0.001 0.089v-0.004 19.942h193.28zM524.8 243.2c-14.138 0-25.6-11.462-25.6-25.6s11.462-25.6 25.6-25.6v0h205.12v-19.942c0-0.022 0-0.048 0-0.074 0-3.089 2.504-5.594 5.594-5.594 1.059 0 2.049 0.294 2.893 0.805l-0.025-0.014c4.992 2.79 73.997 42.995 78.221 45.504 1.724 0.995 2.865 2.828 2.865 4.928s-1.142 3.933-2.838 4.913l-0.027 0.015c-5.875 3.418-74.611 43.418-78.080 45.389-0.855 0.554-1.901 0.883-3.023 0.883-3.103 0-5.619-2.516-5.619-5.619 0-0.058 0.001-0.116 0.003-0.174v0.008-19.827h-205.082zM518.4 465.536c-71.919 1.316-129.715 59.927-129.715 132.037 0 72.933 59.124 132.058 132.058 132.058 72.931 0 132.053-59.12 132.058-132.049v-0.001c-0.671-73.072-60.063-132.050-133.23-132.050-0.411 0-0.822 0.002-1.233 0.006h0.063zM518.4 712c-62.337-1.137-112.435-51.938-112.435-114.44 0-63.213 51.244-114.458 114.458-114.458s114.458 51.244 114.458 114.458c0 0.003 0 0.005 0 0.008v0c-0.584 63.326-52.056 114.436-115.464 114.436-0.357 0-0.714-0.002-1.070-0.005h0.055z" />
<glyph unicode="&#xe93f;" d="M1024 448c0-282.77-229.23-512-512-512s-512 229.23-512 512c0 282.77 229.23 512 512 512s512-229.23 512-512z" />
<glyph unicode="&#xe940;" d="M478.182 579.29c-19.51 23.482-48.72 38.324-81.396 38.324-58.321 0-105.6-47.279-105.6-105.6 0-32.676 14.841-61.886 38.151-81.256l0.173-0.139-24.87-24.858c-30.038 25.949-48.932 64.092-48.932 106.648 0 77.698 62.987 140.685 140.685 140.685 42.556 0 80.698-18.895 106.496-48.753l0.152-0.18zM358.4 665.6c-14.138 0-25.6 11.462-25.6 25.6v0 51.2c0 14.138 11.462 25.6 25.6 25.6s25.6-11.462 25.6-25.6v0-51.2c0-14.138-11.462-25.6-25.6-25.6v0zM217.6 603.802l-36.198 36.198c-4.822 4.662-7.815 11.188-7.815 18.414 0 14.138 11.462 25.6 25.6 25.6 7.226 0 13.752-2.994 18.407-7.808l36.205-36.205c4.822-4.662 7.815-11.188 7.815-18.414 0-14.138-11.462-25.6-25.6-25.6-7.226 0-13.752 2.994-18.407 7.808l-0.007 0.007zM248.704 480.678c0.565-2.030 0.889-4.361 0.889-6.767 0-12.053-8.143-22.205-19.227-25.253l-0.184-0.043-50.586-13.555c-1.908-0.497-4.098-0.783-6.355-0.783-14.464 0-26.189 11.725-26.189 26.189 0 11.899 7.936 21.945 18.803 25.133l0.185 0.047 50.598 13.555c2.030 0.565 4.361 0.889 6.767 0.889 12.053 0 22.205-8.143 25.253-19.227l0.043-0.184zM870.4 294.4c0-84.831-68.769-153.6-153.6-153.6v0h-345.6c-66.721 16.748-115.344 76.197-115.344 147.002 0 2.32 0.052 4.629 0.156 6.923l-0.012-0.326c0 84.831 68.769 153.6 153.6 153.6v0c4.557 0 9.037-0.294 13.478-0.678-0.384 4.442-0.678 8.922-0.678 13.478 0 84.831 68.769 153.6 153.6 153.6s153.6-68.769 153.6-153.6v0c0-4.531-0.294-8.96-0.678-13.414 79.426-6.432 141.45-72.461 141.478-152.983v-0.003zM716.8 409.6c-9.092-0.028-17.918-1.105-26.384-3.114l0.784 0.157v41.357h-0.947c0.535 3.783 0.877 8.216 0.946 12.714l0.001 0.086c0 63.623-51.577 115.2-115.2 115.2s-115.2-51.577-115.2-115.2v0c0.022-4.535 0.305-8.979 0.835-13.347l-0.054 0.547h-0.781v-50.522c-14.989 7.643-32.69 12.121-51.438 12.121-63.623 0-115.2-51.577-115.2-115.2s51.577-115.2 115.2-115.2c0.084 0 0.167 0 0.251 0h-0.013c18.419 0 35.763-8.371 51.2-0.678v0.678h230.4v2.957c7.791-1.879 16.735-2.956 25.931-2.956 63.623 0 115.2 51.577 115.2 115.2s-51.577 115.2-115.2 115.2c-0.116 0-0.232 0-0.349-0.001h0.018zM537.6 761.139c7.706-4.509 12.799-12.744 12.799-22.17 0-4.713-1.273-9.128-3.495-12.921l0.065 0.121-25.6-44.339c-4.528-7.623-12.719-12.653-22.085-12.653-14.138 0-25.6 11.462-25.6 25.6 0 4.653 1.242 9.017 3.411 12.777l-0.066-0.124 25.6 44.339c4.509 7.706 12.744 12.799 22.17 12.799 4.713 0 9.128-1.273 12.921-3.495l-0.121 0.065z" />
<glyph unicode="&#xe941;" glyph-name="a-almanac" d="M887.467 593.067v-375.467c0-75.405-61.128-136.533-136.533-136.533v0h-477.867c-75.405 0-136.533 61.128-136.533 136.533v0 375.467h750.933zM444.774 512.068c-0.316 4.51-1.504 8.674-3.396 12.423l0.085-0.186c-2.332 4.622-5.512 8.494-9.367 11.551l-0.071 0.054c-3.774 3.206-8.227 5.748-13.099 7.377l-0.282 0.082c-3.612 1.033-7.76 1.626-12.047 1.626-1.768 0-3.513-0.101-5.229-0.298l0.21 0.020c-6.211-0.744-11.733-1.834-17.103-3.297l0.821 0.191c-6.18-1.57-11.464-3.415-16.536-5.655l0.664 0.262-23.023-10.359c-5.066-2.327-9.432-5.064-13.392-8.282l0.114 0.090c-3.703-2.913-6.757-6.463-9.039-10.507l-0.092-0.177c-2.811-6.279-4.449-13.609-4.449-21.321 0-1.62 0.072-3.224 0.214-4.808l-0.015 0.205c0.212-10.204 1.11-20.016 2.652-29.612l-0.161 1.213c1.074-7.354 3.91-13.899 8.064-19.391l-0.077 0.106c3.642-6.056 10.012-10.149 17.366-10.579l0.059-0.003 10.581 1.451c0.274 0.036 0.592 0.056 0.914 0.056 1.923 0 3.675-0.728 4.998-1.922l-0.007 0.006c0.984-1.106 1.615-2.545 1.706-4.129l0.001-0.018q0.102-2.287 0.102-10.786v-196.369c-0.006-0.573-0.010-1.249-0.010-1.927 0-7.542 0.456-14.978 1.343-22.282l-0.087 0.878c0.576-5.902 3.069-11.133 6.84-15.152l-0.013 0.014c3.807-3.782 8.734-6.44 14.24-7.433l0.165-0.025c5.907-1.097 12.704-1.725 19.647-1.725 0.713 0 1.424 0.007 2.134 0.020l-0.107-0.002c0.928-0.061 2.012-0.095 3.104-0.095 5.218 0 10.251 0.79 14.986 2.256l-0.359-0.096c4.268 1.654 7.817 4.368 10.436 7.826l0.043 0.059c2.934 3.904 4.934 8.667 5.583 13.851l0.015 0.144c0.802 5.887 1.26 12.692 1.26 19.603 0 0.728-0.005 1.455-0.015 2.181l0.001-0.11v265.779q-0.068 31.3-0.375 37.222zM426.667 410.863c-1.084 2.535-2.015 5.523-2.645 8.62l-0.052 0.305q-0.939 4.659-1.707 7.049t-3.413 11.947l-6.827 24.047c-1.085 3.891-2.642 7.296-4.645 10.385l0.088-0.145c-1.107 1.805-2.938 3.075-5.079 3.408l-0.041 0.005c-1.812-0.244-3.323-1.343-4.133-2.872l-0.014-0.030c-1.496-2.538-2.644-5.487-3.28-8.623l-0.031-0.184q-1.451-6.025-2.901-10.581c-0.348-3.843-2.384-7.149-5.352-9.206l-0.042-0.027c-2.387 1.008-4.14 3.105-4.651 5.651l-0.008 0.050c-1.305 2.903-2.613 6.484-3.685 10.166l-0.155 0.62c-0.409 2.403-1.438 4.514-2.915 6.229l0.014-0.017c-0.752 0.419-1.649 0.665-2.604 0.665-0.588 0-1.154-0.094-1.684-0.266l0.038 0.011c-2.584-1.88-4.246-4.893-4.25-8.294v-0.001l-1.86-9.745-1.707-8.806c-0.383-1.914-0.884-3.583-1.521-5.183l0.070 0.199c-0.234-1.139-0.96-2.073-1.942-2.584l-0.021-0.010c-0.18-0.040-0.388-0.063-0.6-0.063-1.367 0-2.512 0.951-2.809 2.228l-0.004 0.019c-1.216 2.813-2.319 6.169-3.127 9.637l-0.082 0.415-2.492 7.68-2.082 15.548c-0.184 1.073-0.705 2.001-1.448 2.694l-0.003 0.003c-0.972-0.25-1.721-1.005-1.959-1.961l-0.004-0.019c-0.569-1.163-1.034-2.516-1.329-3.932l-0.020-0.113-1.707-9.745q-1.041-4.983-1.451-7.68c-0.018-1.305-0.57-2.477-1.449-3.309l-0.002-0.002c-0.615-0.376-1.36-0.599-2.157-0.599-1.158 0-2.206 0.471-2.963 1.231v0c-1.896 2.285-3.046 5.249-3.046 8.481 0 0.373 0.015 0.742 0.045 1.108l-0.003-0.048-1.451 9.745c-0.542 3.127-0.852 6.728-0.852 10.402 0 0.501 0.006 1.001 0.017 1.499l-0.001-0.074c-0.075 1.296-0.117 2.812-0.117 4.338 0 4.804 0.421 9.51 1.229 14.083l-0.071-0.484c0.702 4.736 2.702 8.912 5.622 12.266l-0.025-0.029c3.423 3.45 7.359 6.384 11.685 8.68l0.262 0.127q7.885 4.352 13.653 7.253t14.49 6.144c4.267 1.75 9.59 3.502 15.050 4.917l0.925 0.203c4.347 1.157 9.342 1.834 14.491 1.86h0.016c0.062 0 0.136 0.001 0.21 0.001 5.911 0 11.453-1.577 16.229-4.334l-0.157 0.084c4.462-2.69 8.006-6.497 10.306-11.041l0.071-0.154c2.139-3.953 3.671-8.561 4.329-13.446l0.023-0.207q0.717-6.537 0.939-12.339v-55.245q-0.205-13.892 0-19.593c0.024-0.346 0.037-0.75 0.037-1.157 0-3.187-0.823-6.181-2.269-8.783l0.047 0.092c-0.689-2.068-2.607-3.533-4.868-3.533-0.149 0-0.296 0.006-0.442 0.019l0.019-0.001c-1.877 0.757-3.276 2.352-3.746 4.31l-0.009 0.042zM681.199 182.17c6.518 6.491 10.552 15.473 10.552 25.397 0 0.804-0.026 1.602-0.079 2.392l0.006-0.107c0.011 0.535 0.017 1.165 0.017 1.797 0 8.423-1.102 16.588-3.17 24.36l0.149-0.66c-1.605 5.273-4.479 9.757-8.274 13.259l-0.020 0.018c-5.563 3.927-12.421 6.372-19.835 6.637l-0.065 0.002c-4.5 0.495-9.719 0.778-15.004 0.778-4.536 0-9.023-0.208-13.452-0.615l0.569 0.042c-3.082-0.465-6.639-0.731-10.258-0.731-2.398 0-4.768 0.117-7.106 0.344l0.297-0.023c-1.866 0.318-3.494 1.171-4.765 2.392l0.003-0.003c-0.886 1.035-1.457 2.363-1.552 3.821l-0.001 0.019c0.082 3.274 1.157 6.281 2.933 8.751l-0.032-0.047 15.548 28.194 33.792 56.32c7.519 12.849 14.227 27.732 19.331 43.34l0.466 1.648c4.035 13.335 6.747 28.785 7.558 44.738l0.019 0.472c0.291 3.315 0.457 7.172 0.457 11.067 0 13.652-2.038 26.828-5.827 39.24l0.25-0.951c-3.606 11.606-9.555 21.579-17.338 29.799l0.032-0.035c-13.126 13.206-31.303 21.38-51.389 21.38-2.458 0-4.887-0.122-7.282-0.361l0.302 0.024c-0.487 0.011-1.061 0.018-1.636 0.018-17.397 0-33.426-5.853-46.227-15.698l0.179 0.132c-8.514-7.348-15.555-16.127-20.808-26.002l-0.236-0.485c-3.535-6.978-6.307-15.073-7.899-23.583l-0.088-0.566q-1.86-11.298-3.311-31.42-2.901-39.407 4.557-46.558c3.651-3.802 7.935-6.963 12.688-9.319l0.266-0.119c4.663-1.593 10.035-2.513 15.622-2.513 0.508 0 1.014 0.008 1.519 0.023l-0.074-0.002c1.637-0.245 3.525-0.385 5.447-0.385 7.671 0 14.821 2.229 20.838 6.076l-0.156-0.093c4.663 4.93 7.773 11.371 8.522 18.516l0.012 0.138 1.86 25.088c0 0.026 0 0.056 0 0.087 0 4.695 1.641 9.006 4.381 12.392l-0.029-0.037c1.629 1.627 3.766 2.746 6.152 3.099l0.060 0.007c2.979-0.265 5.592-1.651 7.449-3.727l0.010-0.011c2.552-2.965 4.106-6.853 4.106-11.103 0-0.507-0.022-1.009-0.065-1.505l0.005 0.064c0.002-0.206 0.003-0.449 0.003-0.693 0-5.995-0.622-11.845-1.806-17.488l0.097 0.552c-1.425-7.185-3-13.173-4.888-19.020l0.331 1.186c-3.153-9.048-6.61-16.716-10.642-24.023l0.402 0.795q-7.339-14.165-24.286-41.626t-26.846-45.926c-6.234-11.381-12.254-24.869-17.216-38.858l-0.618-2c-4.577-11.082-7.234-23.949-7.234-37.437 0-2.146 0.067-4.277 0.2-6.389l-0.015 0.289c0.47-9.936 4.616-18.822 11.098-25.4l-0.005 0.005c4.273-4.344 9.852-7.392 16.1-8.506l0.182-0.027q7.253-0.614 14.507-0.614l78.507-0.205c1.189-0.115 2.57-0.18 3.966-0.18 10.798 0 20.683 3.908 28.319 10.387l-0.063-0.052zM664.371 412.16c-0.936 2.31-1.665 5.002-2.061 7.802l-0.021 0.185q-0.307 3.106-0.939 11.81t-1.451 17.203q-0.836 8.533-2.185 15.65c-0.060 3.233-1.444 6.132-3.629 8.186l-0.006 0.006c-0.501 0.165-1.078 0.26-1.677 0.26-1.306 0-2.507-0.451-3.454-1.207l0.011 0.009c-2.121-1.849-3.967-3.929-5.526-6.22l-0.072-0.112c-0.835-1.617-2.323-2.798-4.106-3.201l-0.041-0.008c-1.315 0.243-2.352 1.212-2.691 2.468l-0.005 0.024c-0.957 2.566-1.753 5.601-2.251 8.734l-0.036 0.277c-0.17 2.797-1.077 5.352-2.526 7.513l0.034-0.054q-2.697 1.451-7.049-7.049l-4.147-9.131c-0.938-2.135-2.803-3.713-5.070-4.24l-0.050-0.010c-1.673 0.185-3.019 1.393-3.408 2.977l-0.006 0.027c-0.673 1.691-1.263 3.705-1.67 5.784l-0.036 0.223c-0.715 3.242-1.502 5.949-2.441 8.585l0.154-0.495c-0.729 2.607-1.865 4.883-3.35 6.882l0.040-0.056c-1.12 1.404-2.83 2.296-4.749 2.296-0.409 0-0.809-0.041-1.195-0.118l0.039 0.006c-1.893-1.006-3.289-2.736-3.828-4.811l-0.012-0.053c-1.395-4.244-2.726-9.544-3.72-14.961l-0.12-0.791q-2.389-11.827-3.311-17.306c-0.52-3.451-1.572-6.56-3.080-9.39l0.076 0.156c-0.839-2.157-2.682-3.757-4.939-4.242l-0.045-0.008c-1.657 0.14-3.034 1.203-3.625 2.668l-0.010 0.029c-1.023 2.353-1.645 5.090-1.706 7.964v0.023l-1.041 7.049c-0.524 6.88-1.963 13.263-4.203 19.255l0.158-0.482c-0.716 1.771-2.186 3.107-4.002 3.625l-0.043 0.011c-2.189-0.458-4.033-1.689-5.274-3.389l-0.017-0.025c-2.653-3.122-4.884-6.717-6.536-10.616l-0.102-0.272c-1.815-4.208-3.859-7.82-6.237-11.18l0.127 0.189c-1.303-2.631-3.811-4.495-6.783-4.876l-0.044-0.005c-2.035 1.131-3.515 3.052-4.034 5.338l-0.010 0.055c-0.412 1.917-0.647 4.119-0.647 6.376 0 3.542 0.58 6.948 1.651 10.129l-0.065-0.224 2.901 14.097c1.673 6.508 3.874 12.186 6.648 17.518l-0.214-0.452c3.352 6.578 7.507 12.209 12.433 17.058l0.008 0.008c4.663 4.773 9.986 8.873 15.828 12.158l0.351 0.182c4.988 2.756 10.766 4.973 16.862 6.35l0.443 0.084c5.849 1.296 12.6 2.086 19.519 2.184l0.073 0.001c0.113 0.001 0.246 0.001 0.38 0.001 7.003 0 13.811-0.834 20.331-2.408l-0.589 0.12c6.642-1.588 12.493-4.122 17.757-7.493l-0.229 0.137c5.893-3.971 10.825-8.87 14.711-14.543l0.12-0.186c4.367-6.099 7.963-13.144 10.427-20.701l0.154-0.547c2.599-8.361 4.378-18.060 4.968-28.079l0.016-0.337c0.275-3.378 0.432-7.313 0.432-11.285 0-6.182-0.38-12.275-1.119-18.257l0.072 0.716-3.994-18.825c-0.384-2.584-1.416-4.875-2.924-6.77l0.022 0.029c-0.689-1.050-1.861-1.734-3.192-1.734-0.414 0-0.813 0.066-1.186 0.189l0.027-0.008c-2.091 1.135-3.592 3.13-4.037 5.498l-0.008 0.049zM136.533 610.133h750.933v68.267c0 75.405-61.128 136.533-136.533 136.533h-477.867c-75.405 0-136.533-61.128-136.533-136.533v-68.267zM375.467 746.667c28.277 0 51.2-22.923 51.2-51.2s-22.923-51.2-51.2-51.2c-28.277 0-51.2 22.923-51.2 51.2v0c0 28.277 22.923 51.2 51.2 51.2v0zM648.533 746.667c28.277 0 51.2-22.923 51.2-51.2s-22.923-51.2-51.2-51.2c-28.277 0-51.2 22.923-51.2 51.2v0c0 28.277 22.923 51.2 51.2 51.2v0z" />
<glyph unicode="&#xe942;" glyph-name="a-cookbook" d="M768 337.92v-308.053c0-28.277-22.923-51.2-51.2-51.2s-51.2 22.923-51.2 51.2v0 742.4c0 42.415 34.385 76.8 76.8 76.8v0h17.067c42.415 0 76.8-34.385 76.8-76.8v0-358.4c-0.079-39.296-29.756-71.635-67.919-75.915l-0.348-0.032zM409.6 423.578v-393.711c0-28.277-22.923-51.2-51.2-51.2s-51.2 22.923-51.2 51.2v0 393.711c-67.668 8.77-119.411 66.011-119.467 135.35v221.873c0.009 50.233 27.178 94.117 67.621 117.77l0.645 0.349v-305.852h68.267v324.267h68.267v-324.267h68.267v305.852c41.088-24.001 68.257-67.886 68.267-118.117v-221.868c-0.056-69.344-51.799-126.586-118.781-135.283l-0.686-0.073z" />
<glyph unicode="&#xe943;" glyph-name="a-expresscheck" d="M128 806.4h375.467c75.405 0 136.533-61.128 136.533-136.533v0-494.933h-580.267v563.2c0 37.703 30.564 68.267 68.267 68.267v0zM281.6 260.267v0c-47.128 0-85.333-38.205-85.333-85.333v0c0-47.128 38.205-85.333 85.333-85.333s85.333 38.205 85.333 85.333c0 47.128-38.205 85.333-85.333 85.333zM281.6 226.133c28.277 0 51.2-22.923 51.2-51.2s-22.923-51.2-51.2-51.2c-28.277 0-51.2 22.923-51.2 51.2v0c0 28.277 22.923 51.2 51.2 51.2v0zM742.4 226.133v0c-37.703 0-68.267-30.564-68.267-68.267v0c0-37.703 30.564-68.267 68.267-68.267s68.267 30.564 68.267 68.267c0 37.703-30.564 68.267-68.267 68.267zM742.4 198.827c22.622 0 40.96-18.338 40.96-40.96s-18.338-40.96-40.96-40.96c-22.622 0-40.96 18.338-40.96 40.96v0c0 22.622 18.338 40.96 40.96 40.96v0z" />
<glyph unicode="&#xe944;" glyph-name="a-horoscope" d="M894.037 711.356c-84.326-0.295-155.472-56.385-178.468-133.265l-0.34-1.323c53.553-51.16 86.845-123.134 86.845-202.884 0-154.864-125.542-280.405-280.405-280.405s-280.405 125.542-280.405 280.405c0 72.003 27.139 137.667 71.745 187.322l-0.229-0.259c-17.716 86.144-92.761 150.059-182.797 150.408h-0.038c-6.997-0.356-13.46-1.038-19.814-2.048l1.040 0.136v95.829c6.246 0.427 12.476 0.956 18.773 0.956 119.458-0.375 221.275-75.495 261.164-181.028l0.639-1.927c37.564 20.351 82.239 32.314 129.708 32.314 41.448 0 80.766-9.12 116.056-25.464l-1.71 0.711c42.367 103.419 142.089 175.017 258.581 175.394h0.047c6.212 0 12.305-0.529 18.432-0.939v-95.829c-5.337 0.872-11.819 1.548-18.393 1.877l-0.432 0.017zM521.011 560.998c-41.887-0.043-80.485-14.086-111.377-37.702l0.444 0.326c0-0.137 0-0.256 0-0.393h-0.614c-45.698-34.376-74.94-88.501-74.94-149.456 0-103.004 83.501-186.505 186.505-186.505s186.505 83.501 186.505 186.505c0 60.955-29.242 115.080-74.462 149.113l-0.477 0.344h-17.801c0 0.137 0 0.273 0 0.393 0 3.806 0.41 7.492 0.563 11.264-26.929 16.396-59.494 26.105-94.325 26.112h-0.002z" />
<glyph unicode="&#xe945;" d="M307.2 874.667v0c-75.405 0-136.533-61.128-136.533-136.533v-580.267c0-75.405 61.128-136.533 136.533-136.533h409.6c75.405 0 136.533 61.128 136.533 136.533v580.267c0 75.405-61.128 136.533-136.533 136.533h-409.6zM307.2 840.533h409.6c56.554 0 102.4-45.846 102.4-102.4v0-580.267c0-56.554-45.846-102.4-102.4-102.4v0h-409.6c-56.554 0-102.4 45.846-102.4 102.4v0 580.267c0 56.554 45.846 102.4 102.4 102.4v0zM264.533 516.267h460.8c14.138 0 25.6-11.462 25.6-25.6s-11.462-25.6-25.6-25.6v0h-460.8c-14.138 0-25.6 11.462-25.6 25.6s11.462 25.6 25.6 25.6v0zM264.533 413.867h460.8c14.138 0 25.6-11.462 25.6-25.6s-11.462-25.6-25.6-25.6v0h-460.8c-14.138 0-25.6 11.462-25.6 25.6s11.462 25.6 25.6 25.6v0zM264.533 328.533h460.8c14.138 0 25.6-11.462 25.6-25.6s-11.462-25.6-25.6-25.6v0h-460.8c-14.138 0-25.6 11.462-25.6 25.6s11.462 25.6 25.6 25.6v0zM597.333 857.6h136.533v-221.867l-68.267 51.2-68.267-51.2v221.867z" />
<glyph unicode="&#xe946;" d="M272.862 281.378h42.018v113.254c7.832 10.493 19.842 17.494 33.518 18.525l0.154 0.009c15.821 0 22.733-9.114 22.733-34.406v-97.28h42.308v102.554c0 41.472-14.967 66.185-49.783 66.185-20.174-1.003-38.049-10.084-50.595-24.048l-0.059-0.067 1.707 30.891v59.119h-42.001v-234.735zM524.373 277.333c40.294 0 77.414 31.761 77.414 86.187 0 55.006-37.12 86.767-77.414 86.767s-77.414-31.761-77.414-86.767c0.017-54.494 37.137-86.187 77.414-86.187zM524.373 312.627c-21.862 0-34.253 20.002-34.253 50.893 0 31.181 12.373 51.473 34.253 51.473s34.236-20.292 34.236-51.473c0.017-30.959-12.356-50.961-34.236-50.961zM688.981 277.623c10.080 0.595 19.495 2.703 28.265 6.104l-0.634-0.216-4.608 17.937c-5.328-2.285-11.508-3.764-17.99-4.107l-0.135-0.006c-18.773 0-24.457 11.759-24.457 31.181v91.989h42.871v19.712h-42.889v45.005h-19.849l-2.594-45.005-24.457-1.468v-18.244h23.603v-91.187c0-31.164 10.359-51.763 42.871-51.763z" />
<glyph unicode="&#xe947;" glyph-name="a-joke" d="M955.733 543.198h-119.774c-3.387-147.078-89.053-273.374-212.627-334.953l-2.226-1.004 78.626-78.643v5.001h85.333v-17.067h-85.333v6.707l-9.387-9.387-85.538 85.538c-34.109-15.201-73.67-25.792-115.169-29.732l-1.533-0.118 75.093-75.093v5.018h85.333v-17.067h-85.333v6.707l-9.387-9.387-88.661 88.661c-4.352-0.137-8.533-0.649-12.885-0.649-0.141 0-0.307 0-0.474 0-211.813 0-383.522 171.709-383.522 383.522 0 57.318 12.574 111.699 35.114 160.536l-0.984-2.378v-132.079h19.337c27.942-51.175 81.373-85.309 142.777-85.309 46.239 0 87.957 19.356 117.494 50.408l0.064 0.068c-4.123 15.556-6.528 33.43-6.605 51.853v0.047c2.44 123.072 102.784 221.905 226.211 221.905 1.473 0 2.943-0.014 4.409-0.042l-0.22 0.003c0.823 0.011 1.796 0.017 2.769 0.017 105.682 0 194.622-71.685 220.847-169.083l0.367-1.6h125.884l-102.4-51.2z" />
</font>
</defs>
</svg>
